mtllib model_57.mtl
o model_57
v -374.6822509765625 866.146728515625 -394.4455871582031 
v -375.48858642578125 866.6552734375 -395.01837158203125 
v -374.1812438964844 865.7944946289062 -393.5171813964844 
v -374.4145812988281 865.7944946289062 -391.3605651855469 
v -374.08599853515625 865.6689453125 -392.4154357910156 
v -376.4408874511719 867.219482421875 -395.12139892578125 
v -377.35186767578125 867.7284545898438 -394.7344055175781 
v -378.36773681640625 868.205810546875 -392.8786926269531 
v -378.0390319824219 868.0802001953125 -393.9345703125 
v -376.0127258300781 866.6552734375 -390.1737365722656 
v -375.1025390625 866.146728515625 -390.560791015625 
v -378.2723693847656 868.0802001953125 -391.7779235839844 
v -377.7721862792969 867.7284545898438 -390.8496398925781 
v -376.96502685546875 867.219482421875 -390.2767639160156 
v -378.8589782714844 857.8070068359375 -394.0232849121094 
v -378.7637023925781 857.681396484375 -392.9215393066406 
v -429.6643371582031 770.7650756835938 -398.4286193847656 
v -430.0246276855469 770.8365478515625 -397.3771667480469 
v -429.8253479003906 770.7783813476562 -399.5374755859375 
v -379.3599548339844 858.1591796875 -394.95166015625 
v -430.26763916015625 771.2308959960938 -400.45953369140625 
v -380.16632080078125 858.667724609375 -395.5244445800781 
v -431.0892333984375 771.7133178710938 -401.0339660644531 
v -381.1186218261719 859.23193359375 -395.62750244140625 
v -432.0849914550781 772.2033081054688 -401.1416931152344 
v -376.4408874511719 867.219482421875 -395.12139892578125 
v -375.48858642578125 866.6552734375 -395.01837158203125 
v -374.6822509765625 866.146728515625 -394.4455871582031 
v -374.1812438964844 865.7944946289062 -393.5171813964844 
v -374.08599853515625 865.6689453125 -392.4154357910156 
v -379.09228515625 857.8070068359375 -391.86663818359375 
v -374.4145812988281 865.7944946289062 -391.3605651855469 
v -379.7802734375 858.1591796875 -391.06689453125 
v -375.1025390625 866.146728515625 -390.560791015625 
v -380.6904602050781 858.667724609375 -390.6798400878906 
v -376.0127258300781 866.6552734375 -390.1737365722656 
v -381.64276123046875 859.23193359375 -390.7828674316406 
v -376.96502685546875 867.219482421875 -390.2767639160156 
v -382.44989013671875 859.7409057617188 -391.3557434082031 
v -377.7721862792969 867.7284545898438 -390.8496398925781 
v -382.9501037597656 860.0926513671875 -392.2840270996094 
v -378.2723693847656 868.0802001953125 -391.7779235839844 
v -383.04547119140625 860.21826171875 -393.3847961425781 
v -378.36773681640625 868.205810546875 -392.8786926269531 
v -382.7167663574219 860.0926513671875 -394.440673828125 
v -378.0390319824219 868.0802001953125 -393.9345703125 
v -382.02960205078125 859.7409057617188 -395.2405090332031 
v -377.35186767578125 867.7284545898438 -394.7344055175781 
v -381.1186218261719 859.23193359375 -395.62750244140625 
v -376.4408874511719 867.219482421875 -395.12139892578125 
v -430.80657958984375 771.0509643554688 -396.6039123535156 
v -431.6883544921875 771.58837890625 -396.210693359375 
v -432.0849914550781 772.2033081054688 -401.1416931152344 
v -433.0379333496094 772.614501953125 -400.7419128417969 
v -433.7127685546875 772.9838256835938 -399.9499206542969 
v -433.97662353515625 773.2498168945312 -398.8951721191406 
v -433.94354248046875 772.9833374023438 -397.809326171875 
v -433.4530944824219 772.6190185546875 -396.8902282714844 
v -432.6627197265625 772.09619140625 -396.328369140625 
v -370.3437194824219 866.146728515625 -408.84307861328125 
v -371.2325134277344 866.6552734375 -409.27703857421875 
v -369.6983642578125 865.7944946289062 -408.008544921875 
v -369.57769775390625 865.7944946289062 -405.8426818847656 
v -369.42510986328125 865.6689453125 -406.9369812011719 
v -372.18890380859375 867.219482421875 -409.2237548828125 
v -373.0247802734375 867.7284545898438 -408.6937255859375 
v -373.7252197265625 868.205810546875 -406.69744873046875 
v -373.5726623535156 868.0802001953125 -407.7927551269531 
v -370.96148681640625 866.6552734375 -404.41168212890625 
v -370.12640380859375 866.146728515625 -404.9416809082031 
v -373.4520263671875 868.0802001953125 -405.6268615722656 
v -372.8074645996094 867.7284545898438 -404.7923278808594 
v -371.9178771972656 867.219482421875 -404.3583984375 
v -374.3960876464844 857.8070068359375 -407.7468566894531 
v -374.12286376953125 857.681396484375 -406.67529296875 
v -425.24127197265625 770.7650756835938 -403.8277282714844 
v -425.4256896972656 770.8365478515625 -402.7316589355469 
v -425.58056640625 770.7783813476562 -404.8956298828125 
v -375.0414733886719 858.1591796875 -408.5813903808594 
v -426.1669616699219 771.2308959960938 -405.7334289550781 
v -375.9302673339844 858.667724609375 -409.0153503417969 
v -427.0710754394531 771.7133178710938 -406.1665344238281 
v -376.8866271972656 859.23193359375 -408.9620666503906 
v -428.0710754394531 772.2033081054688 -406.11083984375 
v -372.18890380859375 867.219482421875 -409.2237548828125 
v -371.2325134277344 866.6552734375 -409.27703857421875 
v -370.3437194824219 866.146728515625 -408.84307861328125 
v -369.6983642578125 865.7944946289062 -408.008544921875 
v -369.42510986328125 865.6689453125 -406.9369812011719 
v -374.27545166015625 857.8070068359375 -405.58099365234375 
v -369.57769775390625 865.7944946289062 -405.8426818847656 
v -374.82415771484375 858.1591796875 -404.67999267578125 
v -370.12640380859375 866.146728515625 -404.9416809082031 
v -375.65924072265625 858.667724609375 -404.1499938964844 
v -370.96148681640625 866.6552734375 -404.41168212890625 
v -376.6156005859375 859.23193359375 -404.0967102050781 
v -371.9178771972656 867.219482421875 -404.3583984375 
v -377.50518798828125 859.7409057617188 -404.5306396484375 
v -372.8074645996094 867.7284545898438 -404.7923278808594 
v -378.1497497558594 860.0926513671875 -405.36517333984375 
v -373.4520263671875 868.0802001953125 -405.6268615722656 
v -378.4229431152344 860.21826171875 -406.4357604980469 
v -373.7252197265625 868.205810546875 -406.69744873046875 
v -378.2704162597656 860.0926513671875 -407.53106689453125 
v -373.5726623535156 868.0802001953125 -407.7927551269531 
v -377.7225341796875 859.7409057617188 -408.4320373535156 
v -373.0247802734375 867.7284545898438 -408.6937255859375 
v -376.8866271972656 859.23193359375 -408.9620666503906 
v -372.18890380859375 867.219482421875 -409.2237548828125 
v -426.0714111328125 771.0509643554688 -401.84149169921875 
v -426.8774719238281 771.58837890625 -401.31005859375 
v -428.0710754394531 772.2033081054688 -406.11083984375 
v -428.9462890625 772.614501953125 -405.56134033203125 
v -429.4832763671875 772.9838256835938 -404.67010498046875 
v -429.572021484375 773.2498168945312 -403.58648681640625 
v -429.36273193359375 772.9833374023438 -402.5204772949219 
v -428.729248046875 772.6190185546875 -401.6934509277344 
v -427.8580017089844 772.09619140625 -401.26763916015625 
vn 5.618533134460449 9.594033241271973 0.6078863143920898 
vn 5.618533134460449 9.594033241271973 0.6078863143920898 
vn 5.618533134460449 9.594033241271973 0.6078863143920898 
vn 5.618533134460449 9.594033241271973 0.6078863143920898 
vn 5.618533134460449 9.594033241271973 0.6078863143920898 
vn 5.618533134460449 9.594033241271973 0.6078863143920898 
vn 5.618533134460449 9.594033241271973 0.6078863143920898 
vn 5.618533134460449 9.594033241271973 0.6078863143920898 
vn 5.618533134460449 9.594033241271973 0.6078863143920898 
vn 5.618533134460449 9.594033241271973 0.6078863143920898 
vn 5.618533134460449 9.594033241271973 0.6078863143920898 
vn 5.618533134460449 9.594033241271973 0.6078863143920898 
vn 5.618533134460449 9.594033241271973 0.6078863143920898 
vn 5.618533134460449 9.594033241271973 0.6078863143920898 
vn 9.110991477966309 -5.120518207550049 -3.8409430980682373 
vn 9.526062965393066 -5.6722636222839355 1.0306538343429565 
vn 9.534835815429688 -5.672102928161621 0.9470246434211731 
vn 7.918159008026123 -5.044631481170654 5.986416339874268 
vn 9.087849617004395 -5.101979732513428 -3.9196300506591797 
vn 6.888494491577148 -3.4978015422821045 -8.01852798461914 
vn 6.939031600952148 -3.5310966968536377 -7.960147857666016 
vn 3.3219175338745117 -1.2484585046768188 -10.554100036621094 
vn 3.2536635398864746 -1.2068352699279785 -10.580171585083008 
vn -0.9631616473197937 1.290378451347351 -11.017716407775879 
vn -1.2041130065917969 1.3728843927383423 -10.983993530273438 
vn -0.9631616473197937 1.290378451347351 -11.017716407775879 
vn 3.3219175338745117 -1.2484585046768188 -10.554100036621094 
vn 6.888494491577148 -3.4978015422821045 -8.01852798461914 
vn 9.110991477966309 -5.120518207550049 -3.8409430980682373 
vn 9.526062965393066 -5.6722636222839355 1.0306538343429565 
vn 8.07864761352539 -5.120518207550049 5.700742721557617 
vn 8.07864761352539 -5.120518207550049 5.700742721557617 
vn 4.989520072937012 -3.5397214889526367 9.3036470413208 
vn 4.989520072937012 -3.5397214889526367 9.3036470413208 
vn 0.9631616473197937 -1.290378451347351 11.017716407775879 
vn 0.9631616473197937 -1.290378451347351 11.017716407775879 
vn -3.3219175338745117 1.2484585046768188 10.554100036621094 
vn -3.3219175338745117 1.2484585046768188 10.554100036621094 
vn -6.888494491577148 3.4978015422821045 8.01852798461914 
vn -6.888494491577148 3.4978015422821045 8.01852798461914 
vn -9.135540962219238 5.0785980224609375 3.838286876678467 
vn -9.110991477966309 5.120518207550049 3.8409430980682373 
vn -9.550612449645996 5.630343437194824 -1.0333099365234375 
vn -9.526062965393066 5.6722636222839355 -1.0306538343429565 
vn -8.103198051452637 5.0785980224609375 -5.703398704528809 
vn -8.07864761352539 5.120518207550049 -5.700742721557617 
vn -5.014069557189941 3.4978013038635254 -9.306303024291992 
vn -4.989520072937012 3.5397214889526367 -9.3036470413208 
vn -0.9631616473197937 1.290378451347351 -11.017716407775879 
vn -0.9631616473197937 1.290378451347351 -11.017716407775879 
vn 4.864958763122559 -3.4725310802459717 9.394492149353027 
vn 0.8909109234809875 -1.2487550973892212 11.028586387634277 
vn -1.2041130065917969 1.3728843927383423 -10.983993530273438 
vn -5.1374897956848145 3.5641889572143555 -9.213335037231445 
vn -7.983514785766602 5.022115707397461 -5.918156147003174 
vn -9.550612449645996 5.630343437194824 -1.0333099365234375 
vn -9.064559936523438 5.022115707397461 4.073672771453857 
vn -6.837564945220947 3.4643056392669678 8.076451301574707 
vn -3.3899824619293213 1.2900094985961914 10.527426719665527 
vn 5.642573356628418 9.594033241271973 -0.3143199682235718 
vn 5.642573356628418 9.594033241271973 -0.3143199682235718 
vn 5.642573356628418 9.594033241271973 -0.3143199682235718 
vn 5.642573356628418 9.594033241271973 -0.3143199682235718 
vn 5.642573356628418 9.594033241271973 -0.3143199682235718 
vn 5.642573356628418 9.594033241271973 -0.3143199682235718 
vn 5.642573356628418 9.594033241271973 -0.3143199682235718 
vn 5.642573356628418 9.594033241271973 -0.3143199682235718 
vn 5.642573356628418 9.594033241271973 -0.3143199682235718 
vn 5.642573356628418 9.594033241271973 -0.3143199682235718 
vn 5.642573356628418 9.594033241271973 -0.3143199682235718 
vn 5.642573356628418 9.594033241271973 -0.3143199682235718 
vn 5.642573356628418 9.594033241271973 -0.3143199682235718 
vn 5.642573356628418 9.594033241271973 -0.3143199682235718 
vn 8.389351844787598 -5.078597068786621 -5.273451328277588 
vn 9.591477394104004 -5.630342483520508 -0.5342941880226135 
vn 9.586526870727539 -5.630181312561035 -0.6182364225387573 
vn 8.811273574829102 -5.002710342407227 4.617034912109375 
vn 8.353716850280762 -5.06005859375 -5.347324848175049 
vn 5.492140769958496 -3.497800588607788 -9.032411575317383 
vn 5.5515031814575195 -3.5310957431793213 -8.983031272888184 
vn 1.5605591535568237 -1.2484581470489502 -10.953935623168945 
vn 1.4889729022979736 -1.2068349123001099 -10.968555450439453 
vn -2.7428548336029053 1.290378212928772 -10.714213371276855 
vn -2.975109338760376 1.3728841543197632 -10.641738891601562 
vn -2.7428548336029053 1.290378212928772 -10.714213371276855 
vn 1.5605591535568237 -1.2484581470489502 -10.953935623168945 
vn 5.492140769958496 -3.497800588607788 -9.032411575317383 
vn 8.389351844787598 -5.078597068786621 -5.273451328277588 
vn 9.591477394104004 -5.630342483520508 -0.5342941880226135 
vn 8.898492813110352 -5.120516777038574 4.31043004989624 
vn 8.923147201538086 -5.078597068786621 4.309056758880615 
vn 6.436697006225586 -3.5397207736968994 8.367914199829102 
vn 6.46135139465332 -3.497800588607788 8.366540908813477 
vn 2.7428548336029053 -1.290378212928772 10.714213371276855 
vn 2.7428548336029053 -1.290378212928772 10.714213371276855 
vn -1.5605591535568237 1.2484581470489502 10.953935623168945 
vn -1.5605591535568237 1.2484581470489502 10.953935623168945 
vn -5.492140769958496 3.497800588607788 9.032411575317383 
vn -5.492140769958496 3.497800588607788 9.032411575317383 
vn -8.389351844787598 5.078597068786621 5.273451328277588 
vn -8.389351844787598 5.078597068786621 5.273451328277588 
vn -9.591477394104004 5.630342483520508 0.5342941880226135 
vn -9.591477394104004 5.630342483520508 0.5342941880226135 
vn -8.923147201538086 5.078597068786621 -4.309056758880615 
vn -8.923147201538086 5.078597068786621 -4.309056758880615 
vn -6.46135139465332 3.497800588607788 -8.366540908813477 
vn -6.46135139465332 3.497800588607788 -8.366540908813477 
vn -2.7428548336029053 1.290378212928772 -10.714213371276855 
vn -2.7428548336029053 1.290378212928772 -10.714213371276855 
vn 6.328575611114502 -3.4725303649902344 8.477814674377441 
vn 2.673335313796997 -1.2487549781799316 10.736693382263184 
vn -2.975109338760376 1.3728841543197632 -10.641738891601562 
vn -6.568001747131348 3.5641884803771973 -8.254731178283691 
vn -8.839998245239258 5.022114276885986 -4.540424346923828 
vn -9.591477394104004 5.630342483520508 0.5342941880226135 
vn -8.281021118164062 5.022114276885986 5.494152545928955 
vn -5.43246603012085 3.4643049240112305 9.081276893615723 
vn -1.6320570707321167 1.2900090217590332 10.938691139221191 
s on 
f 1//1 2//2 3//3 
f 2//2 4//4 3//3 
f 3//3 4//4 5//5 
f 4//4 5//5 5//5 
f 5//5 5//5 6//6 
f 5//5 6//6 6//6 
f 6//6 6//6 2//2 
f 6//6 7//7 2//2 
f 2//2 7//7 8//8 
f 7//7 9//9 8//8 
f 8//8 9//9 9//9 
f 9//9 2//2 9//9 
f 9//9 2//2 2//2 
f 2//2 8//8 2//2 
f 2//2 8//8 4//4 
f 8//8 10//10 4//4 
f 4//4 10//10 11//11 
f 10//10 11//11 11//11 
f 11//11 11//11 12//12 
f 11//11 12//12 12//12 
f 12//12 12//12 8//8 
f 12//12 13//13 8//8 
f 8//8 13//13 10//10 
f 13//13 14//14 10//10 
f 10//10 14//14 14//14 
f 14//14 15//15 14//14 
f 14//14 15//15 15//15 
f 15//15 16//16 15//15 
f 15//15 16//16 17//17 
f 16//16 18//18 17//17 
f 17//17 18//18 18//18 
f 18//18 17//17 18//18 
f 18//18 17//17 17//17 
f 17//17 19//19 17//17 
f 17//17 19//19 15//15 
f 19//19 19//19 15//15 
f 15//15 19//19 20//20 
f 19//19 21//21 20//20 
f 20//20 21//21 22//22 
f 21//21 23//23 22//22 
f 22//22 23//23 24//24 
f 23//23 25//25 24//24 
f 24//24 25//25 25//25 
f 25//25 24//24 25//25 
f 25//25 24//24 24//24 
f 24//24 26//26 24//24 
f 24//24 26//26 22//22 
f 26//26 27//27 22//22 
f 22//22 27//27 20//20 
f 27//27 28//28 20//20 
f 20//20 28//28 15//15 
f 28//28 29//29 15//15 
f 15//15 29//29 16//16 
f 29//29 30//30 16//16 
f 16//16 30//30 31//31 
f 30//30 32//32 31//31 
f 31//31 32//32 33//33 
f 32//32 34//34 33//33 
f 33//33 34//34 35//35 
f 34//34 36//36 35//35 
f 35//35 36//36 37//37 
f 36//36 38//38 37//37 
f 37//37 38//38 39//39 
f 38//38 40//40 39//39 
f 39//39 40//40 41//41 
f 40//40 42//42 41//41 
f 41//41 42//42 43//43 
f 42//42 44//44 43//43 
f 43//43 44//44 45//45 
f 44//44 46//46 45//45 
f 45//45 46//46 47//47 
f 46//46 48//48 47//47 
f 47//47 48//48 49//49 
f 48//48 50//50 49//49 
f 49//49 50//50 50//50 
f 50//50 16//16 50//50 
f 50//50 16//16 16//16 
f 16//16 31//31 16//16 
f 16//16 31//31 18//18 
f 31//31 31//31 18//18 
f 18//18 31//31 51//51 
f 31//31 33//33 51//51 
f 51//51 33//33 52//52 
f 33//33 35//35 52//52 
f 52//52 35//35 35//35 
f 35//35 49//49 35//35 
f 35//35 49//49 49//49 
f 49//49 53//53 49//49 
f 49//49 53//53 47//47 
f 53//53 54//54 47//47 
f 47//47 54//54 45//45 
f 54//54 55//55 45//45 
f 45//45 55//55 43//43 
f 55//55 56//56 43//43 
f 43//43 56//56 41//41 
f 56//56 57//57 41//41 
f 41//41 57//57 39//39 
f 57//57 58//58 39//39 
f 39//39 58//58 37//37 
f 58//58 59//59 37//37 
f 37//37 59//59 35//35 
f 59//59 52//52 35//35 
f 35//35 52//52 52//52 
f 52//52 60//60 52//52 
f 52//52 60//60 60//60 
f 60//60 61//61 60//60 
f 60//60 61//61 62//62 
f 61//61 63//63 62//62 
f 62//62 63//63 64//64 
f 63//63 64//64 64//64 
f 64//64 64//64 65//65 
f 64//64 65//65 65//65 
f 65//65 65//65 61//61 
f 65//65 66//66 61//61 
f 61//61 66//66 67//67 
f 66//66 68//68 67//67 
f 67//67 68//68 68//68 
f 68//68 61//61 68//68 
f 68//68 61//61 61//61 
f 61//61 67//67 61//61 
f 61//61 67//67 63//63 
f 67//67 69//69 63//63 
f 63//63 69//69 70//70 
f 69//69 70//70 70//70 
f 70//70 70//70 71//71 
f 70//70 71//71 71//71 
f 71//71 71//71 67//67 
f 71//71 72//72 67//67 
f 67//67 72//72 69//69 
f 72//72 73//73 69//69 
f 69//69 73//73 73//73 
f 73//73 74//74 73//73 
f 73//73 74//74 74//74 
f 74//74 75//75 74//74 
f 74//74 75//75 76//76 
f 75//75 77//77 76//76 
f 76//76 77//77 77//77 
f 77//77 76//76 77//77 
f 77//77 76//76 76//76 
f 76//76 78//78 76//76 
f 76//76 78//78 74//74 
f 78//78 78//78 74//74 
f 74//74 78//78 79//79 
f 78//78 80//80 79//79 
f 79//79 80//80 81//81 
f 80//80 82//82 81//81 
f 81//81 82//82 83//83 
f 82//82 84//84 83//83 
f 83//83 84//84 84//84 
f 84//84 83//83 84//84 
f 84//84 83//83 83//83 
f 83//83 85//85 83//83 
f 83//83 85//85 81//81 
f 85//85 86//86 81//81 
f 81//81 86//86 79//79 
f 86//86 87//87 79//79 
f 79//79 87//87 74//74 
f 87//87 88//88 74//74 
f 74//74 88//88 75//75 
f 88//88 89//89 75//75 
f 75//75 89//89 90//90 
f 89//89 91//91 90//90 
f 90//90 91//91 92//92 
f 91//91 93//93 92//92 
f 92//92 93//93 94//94 
f 93//93 95//95 94//94 
f 94//94 95//95 96//96 
f 95//95 97//97 96//96 
f 96//96 97//97 98//98 
f 97//97 99//99 98//98 
f 98//98 99//99 100//100 
f 99//99 101//101 100//100 
f 100//100 101//101 102//102 
f 101//101 103//103 102//102 
f 102//102 103//103 104//104 
f 103//103 105//105 104//104 
f 104//104 105//105 106//106 
f 105//105 107//107 106//106 
f 106//106 107//107 108//108 
f 107//107 109//109 108//108 
f 108//108 109//109 109//109 
f 109//109 75//75 109//109 
f 109//109 75//75 75//75 
f 75//75 90//90 75//75 
f 75//75 90//90 77//77 
f 90//90 90//90 77//77 
f 77//77 90//90 110//110 
f 90//90 92//92 110//110 
f 110//110 92//92 111//111 
f 92//92 94//94 111//111 
f 111//111 94//94 94//94 
f 94//94 108//108 94//94 
f 94//94 108//108 108//108 
f 108//108 112//112 108//108 
f 108//108 112//112 106//106 
f 112//112 113//113 106//106 
f 106//106 113//113 104//104 
f 113//113 114//114 104//104 
f 104//104 114//114 102//102 
f 114//114 115//115 102//102 
f 102//102 115//115 100//100 
f 115//115 116//116 100//100 
f 100//100 116//116 98//98 
f 116//116 117//117 98//98 
f 98//98 117//117 96//96 
f 117//117 118//118 96//96 
f 96//96 118//118 94//94 
f 118//118 111//111 94//94 

