mtllib model_16.mtl
o model_16
v 340.35626220703125 779.8862915039062 -265.1230163574219 
v 340.0590515136719 779.8862915039062 -264.65972900390625 
v 340.6534423828125 779.88623046875 -264.8287048339844 
v 340.4698791503906 779.8861694335938 -264.044921875 
v 339.8026428222656 779.88623046875 -263.96044921875 
v 340.41162109375 779.8861083984375 -263.21160888671875 
v 339.7210693359375 779.88623046875 -263.21160888671875 
v 340.4728088378906 779.8861083984375 -262.3811950683594 
v 339.8055419921875 779.88623046875 -262.4627990722656 
v 340.6592712402344 779.8860473632812 -261.597412109375 
v 340.06488037109375 779.88623046875 -261.76348876953125 
v 340.8282775878906 779.8860473632812 -261.0030212402344 
v 340.364990234375 779.8861694335938 -261.30023193359375 
v 341.5275573730469 779.8858642578125 -260.7466125488281 
v 341.4430847167969 779.8859252929688 -261.4138488769531 
v 341.3498229980469 779.885986328125 -262.2908630371094 
v 341.3177795410156 779.8860473632812 -263.21453857421875 
v 341.346923828125 779.8861083984375 -264.13818359375 
v 341.437255859375 779.8861694335938 -265.01519775390625 
v 340.81951904296875 779.88623046875 -265.4231262207031 
v 341.5188293457031 779.88623046875 -265.68243408203125 
v 342.2676696777344 779.88623046875 -265.0763854980469 
v 342.2676696777344 779.88623046875 -265.7669372558594 
v 342.2763977050781 779.8860473632812 -260.6650390625 
v 342.27056884765625 779.8861694335938 -264.17022705078125 
v 342.27056884765625 779.8861083984375 -263.2174377441406 
v 342.27349853515625 779.8861083984375 -262.2617492675781 
v 342.2763977050781 779.8860473632812 -261.3555908203125 
v 343.0252380371094 779.88623046875 -260.74951171875 
v 343.1068115234375 779.88623046875 -261.4167785644531 
v 343.7245178222656 779.8862915039062 -261.00885009765625 
v 343.1971435546875 779.88623046875 -262.2937927246094 
v 343.2262878417969 779.88623046875 -263.2174377441406 
v 343.1942138671875 779.88623046875 -264.1410827636719 
v 343.1009826660156 779.8862915039062 -265.0180969238281 
v 343.0164794921875 779.8862915039062 -265.68536376953125 
v 343.884765625 779.8862915039062 -264.83453369140625 
v 343.7157897949219 779.8862915039062 -265.428955078125 
v 344.47918701171875 779.8862915039062 -264.66845703125 
v 344.1790771484375 779.8862915039062 -265.1317443847656 
v 344.7384948730469 779.8862915039062 -263.96917724609375 
v 344.0712585449219 779.8862915039062 -264.0507507324219 
v 344.1324462890625 779.8862915039062 -263.2203369140625 
v 344.07415771484375 779.8862915039062 -262.38702392578125 
v 343.8905944824219 779.8862915039062 -261.6032409667969 
v 344.18780517578125 779.8862915039062 -261.3089599609375 
v 344.4850158691406 779.8862915039062 -261.7722473144531 
v 344.7414245605469 779.8862915039062 -262.4715270996094 
v 344.822998046875 779.8862915039062 -263.2203674316406 
v 339.4093017578125 779.8862915039062 -263.21160888671875 
v 339.8026428222656 779.88623046875 -263.96044921875 
v 339.50543212890625 779.8862915039062 -263.9516906738281 
v 340.0590515136719 779.8862915039062 -264.65972900390625 
v 339.7210693359375 779.88623046875 -263.21160888671875 
v 339.50836181640625 779.8862915039062 -262.4686279296875 
v 339.8055419921875 779.88623046875 -262.4627990722656 
v 339.79681396484375 779.8862915039062 -261.7809753417969 
v 340.06488037109375 779.88623046875 -261.76348876953125 
v 340.2513427734375 779.88623046875 -261.18658447265625 
v 340.364990234375 779.8861694335938 -261.30023193359375 
v 340.84576416015625 779.885986328125 -260.7349548339844 
v 340.8282775878906 779.8860473632812 -261.0030212402344 
v 341.53631591796875 779.8858642578125 -260.44940185546875 
v 341.5275573730469 779.8858642578125 -260.7466125488281 
v 342.2763977050781 779.885986328125 -260.353271484375 
v 342.2763977050781 779.8860473632812 -260.6650390625 
v 343.0194091796875 779.88623046875 -260.45233154296875 
v 343.0252380371094 779.88623046875 -260.74951171875 
v 343.70703125 779.8862915039062 -260.74078369140625 
v 343.7245178222656 779.8862915039062 -261.00885009765625 
v 344.30145263671875 779.8862915039062 -261.1953125 
v 344.18780517578125 779.8862915039062 -261.3089599609375 
v 344.7530822753906 779.8862915039062 -261.78973388671875 
v 344.4850158691406 779.8862915039062 -261.7722473144531 
v 345.0386047363281 779.8862915039062 -262.48028564453125 
v 344.7414245605469 779.8862915039062 -262.4715270996094 
v 345.134765625 779.8862915039062 -263.2203674316406 
v 344.822998046875 779.8862915039062 -263.2203674316406 
v 345.03570556640625 779.8862915039062 -263.9633483886719 
v 344.7384948730469 779.8862915039062 -263.96917724609375 
v 344.74725341796875 779.8862915039062 -264.6510009765625 
v 344.47918701171875 779.8862915039062 -264.66845703125 
v 344.2926940917969 779.8862915039062 -265.2453918457031 
v 344.1790771484375 779.8862915039062 -265.1317443847656 
v 343.69830322265625 779.8862915039062 -265.6969909667969 
v 343.7157897949219 779.8862915039062 -265.428955078125 
v 343.00775146484375 779.8862915039062 -265.9825439453125 
v 343.0164794921875 779.8862915039062 -265.68536376953125 
v 342.2676696777344 779.8862915039062 -266.0787048339844 
v 342.2676696777344 779.88623046875 -265.7669372558594 
v 341.524658203125 779.8862915039062 -265.9796447753906 
v 341.5188293457031 779.88623046875 -265.68243408203125 
v 340.8370056152344 779.8862915039062 -265.6911926269531 
v 340.81951904296875 779.88623046875 -265.4231262207031 
v 340.24261474609375 779.8862915039062 -265.23663330078125 
v 339.7909851074219 779.8862915039062 -264.6422424316406 
v 339.3888854980469 779.8862915039062 -263.9837341308594 
v 339.2898254394531 779.8862915039062 -263.2087097167969 
v 339.68609619140625 779.8862915039062 -264.7005310058594 
v 340.1581115722656 779.8862915039062 -265.3211364746094 
v 340.77581787109375 779.8862915039062 -265.79608154296875 
v 341.49261474609375 779.8862915039062 -266.09619140625 
v 342.2647399902344 779.8862915039062 -266.1981506347656 
v 343.039794921875 779.8862915039062 -266.0990905761719 
v 343.7565612792969 779.8862915039062 -265.8019104003906 
v 344.377197265625 779.8862915039062 -265.3298645019531 
v 344.8521423339844 779.8862915039062 -264.7121887207031 
v 345.1522521972656 779.8862915039062 -263.9953918457031 
v 345.2542419433594 779.8862915039062 -263.2232666015625 
v 345.1551513671875 779.8862915039062 -262.4482116699219 
v 344.85797119140625 779.8862915039062 -261.7314453125 
v 344.38592529296875 779.8862915039062 -261.11083984375 
v 343.7682189941406 779.8862915039062 -260.6358947753906 
v 343.05145263671875 779.88623046875 -260.3357849121094 
v 342.2793273925781 779.885986328125 -260.2337951660156 
v 341.5042724609375 779.8858642578125 -260.3328552246094 
v 340.7845764160156 779.885986328125 -260.63006591796875 
v 340.1668701171875 779.88623046875 -261.1020812988281 
v 339.6919250488281 779.8862915039062 -261.71978759765625 
v 339.3918151855469 779.8862915039062 -262.4365539550781 
vn 0.0000028610195386136184 1 -5.642610858558328e-7 
vn 0.0000028610195386136184 1 -5.642610858558328e-7 
vn 0.0000028610195386136184 1 -5.642610858558328e-7 
vn 0.0000028610195386136184 1 -5.642610858558328e-7 
vn 0.0000028610195386136184 1 -5.642610858558328e-7 
vn 0.0000028610195386136184 1 -5.642610858558328e-7 
vn 0.0000028610195386136184 1 -5.642610858558328e-7 
vn 0.0000028610195386136184 1 -5.642610858558328e-7 
vn 0.0000028610195386136184 1 -5.642610858558328e-7 
vn 0.0000028610195386136184 1 -5.642610858558328e-7 
vn 0.0000028610195386136184 1 -5.642610858558328e-7 
vn 0.0000028610195386136184 1 -5.642610858558328e-7 
vn 0.0000028610195386136184 1 -5.642610858558328e-7 
vn 0.0000028610199933609692 1 -5.642610858558328e-7 
vn 0.0000028610199933609692 1 -5.642610858558328e-7 
vn 0.0000028610199933609692 1 -5.642610858558328e-7 
vn 0.0000028610199933609692 1 -5.642610858558328e-7 
vn 0.0000028610199933609692 1 -5.642610858558328e-7 
vn 0.0000028610195386136184 1 -5.642610858558328e-7 
vn 0.0000028610195386136184 1 -5.642610858558328e-7 
vn 0.0000028610195386136184 1 -5.642610858558328e-7 
vn 0.0000028610199933609692 1 -5.642610858558328e-7 
vn 0.0000028610199933609692 1 -5.642610858558328e-7 
vn 0.0000028610199933609692 1 -5.642610858558328e-7 
vn 0.0000028610199933609692 1 -5.642610858558328e-7 
vn 0.0000028610199933609692 1 -5.642610858558328e-7 
vn 0.0000028610199933609692 1 -5.642610858558328e-7 
vn 0.0000028610199933609692 1 -5.642610858558328e-7 
vn 0.0000028610199933609692 1 -5.642610858558328e-7 
vn 0.0000028610199933609692 1 -5.642610858558328e-7 
vn 0.0000028610199933609692 1 -5.642610858558328e-7 
vn 0.0000028610199933609692 1 -5.642610858558328e-7 
vn 0.0000028610199933609692 1 -5.642610858558328e-7 
vn 0.0000028610199933609692 1 -5.642610858558328e-7 
vn 0.0000028610199933609692 1 -5.642610858558328e-7 
vn 0.0000028610199933609692 1 -5.642610858558328e-7 
vn 0.0000028610199933609692 1 -5.642610858558328e-7 
vn 0.0000028610199933609692 1 -5.642610858558328e-7 
vn 0.0000028610199933609692 1 -5.642610858558328e-7 
vn 0.0000028610199933609692 1 -5.642610858558328e-7 
vn 0.0000028610199933609692 1 -5.642610858558328e-7 
vn 0.0000028610199933609692 1 -5.642610858558328e-7 
vn 0.0000028610199933609692 1 -5.642610858558328e-7 
vn 0.0000028610199933609692 1 -5.642610858558328e-7 
vn 0.0000028610199933609692 1 -5.642610858558328e-7 
vn 0.0000028610195386136184 1 -5.642610858558328e-7 
vn 0.0000028610195386136184 1 -5.642610858558328e-7 
vn 0.0000028610195386136184 1 -5.642610858558328e-7 
vn 0.0000028610199933609692 1 -5.642610858558328e-7 
vn 0.0000028610195386136184 1 -5.642610858558328e-7 
vn 0.0000028610195386136184 1 -5.642610858558328e-7 
vn 0.0000028610195386136184 1 -5.642610858558328e-7 
vn 0.0000028610195386136184 1 -5.642610858558328e-7 
vn 0.0000028610195386136184 1 -5.642610858558328e-7 
vn 0.0000028610195386136184 1 -5.642610858558328e-7 
vn 0.0000028610195386136184 1 -5.642610858558328e-7 
vn 0.0000028610195386136184 1 -5.642610858558328e-7 
vn 0.0000028610195386136184 1 -5.642610858558328e-7 
vn 0.0000028610195386136184 1 -5.642610858558328e-7 
vn 0.0000028610195386136184 1 -5.642610858558328e-7 
vn 0.0000028610195386136184 1 -5.642610858558328e-7 
vn 0.0000028610195386136184 1 -5.642610858558328e-7 
vn 0.0000028610199933609692 1 -5.642610858558328e-7 
vn 0.0000028610199933609692 1 -5.642610858558328e-7 
vn 0.0000028610199933609692 1 -5.642610858558328e-7 
vn 0.0000028610199933609692 1 -5.642610858558328e-7 
vn 0.0000028610199933609692 1 -5.642610858558328e-7 
vn 0.0000028610199933609692 1 -5.642610858558328e-7 
vn 0.0000028610199933609692 1 -5.642610858558328e-7 
vn 0.0000028610199933609692 1 -5.642610858558328e-7 
vn 0.0000028610195386136184 1 -5.642610858558328e-7 
vn 0.0000028610195386136184 1 -5.642610858558328e-7 
vn 0.0000028610195386136184 1 -5.642610858558328e-7 
vn 0.0000028610195386136184 1 -5.642610858558328e-7 
vn 0.0000028610199933609692 1 -5.642610858558328e-7 
vn 0.0000028610195386136184 1 -5.642610858558328e-7 
vn 0.0000028610199933609692 1 -5.642610858558328e-7 
vn 0.0000028610199933609692 1 -5.642610858558328e-7 
vn 0.0000028610199933609692 1 -5.642610858558328e-7 
vn 0.0000028610199933609692 1 -5.642610858558328e-7 
vn 0.0000028610199933609692 1 -5.642610858558328e-7 
vn 0.0000028610199933609692 1 -5.642610858558328e-7 
vn 0.0000028610199933609692 1 -5.642610858558328e-7 
vn 0.0000028610199933609692 1 -5.642610858558328e-7 
vn 0.0000028610199933609692 1 -5.642610858558328e-7 
vn 0.0000028610199933609692 1 -5.642610858558328e-7 
vn 0.0000028610199933609692 1 -5.642610858558328e-7 
vn 0.0000028610199933609692 1 -5.642610858558328e-7 
vn 0.0000028610199933609692 1 -5.642610858558328e-7 
vn 0.0000028610199933609692 1 -5.642610858558328e-7 
vn 0.0000028610195386136184 1 -5.642610858558328e-7 
vn 0.0000028610195386136184 1 -5.642610858558328e-7 
vn 0.0000028610195386136184 1 -5.642610858558328e-7 
vn 0.0000028610195386136184 1 -5.642610858558328e-7 
vn 0.0000028610195386136184 1 -5.642610858558328e-7 
vn 0.0000028610195386136184 1 -5.642610858558328e-7 
vn 0.0000028610199933609692 1 -5.642610858558328e-7 
vn 0.0000028610199933609692 1 -5.642610858558328e-7 
vn 0.0000028610195386136184 1 -5.642610858558328e-7 
vn 0.0000028610195386136184 1 -5.642610858558328e-7 
vn 0.0000028610195386136184 1 -5.642610858558328e-7 
vn 0.0000028610195386136184 1 -5.642610858558328e-7 
vn 0.0000028610199933609692 1 -5.642610858558328e-7 
vn 0.0000028610199933609692 1 -5.642610858558328e-7 
vn 0.0000028610199933609692 1 -5.642610858558328e-7 
vn 0.0000028610199933609692 1 -5.642610858558328e-7 
vn 0.0000028610199933609692 1 -5.642610858558328e-7 
vn 0.0000028610199933609692 1 -5.642610858558328e-7 
vn 0.0000028610199933609692 1 -5.642610858558328e-7 
vn 0.0000028610199933609692 1 -5.642610858558328e-7 
vn 0.0000028610195386136184 1 -5.642610858558328e-7 
vn 0.0000028610195386136184 1 -5.642610858558328e-7 
vn 0.0000028610199933609692 1 -5.642610858558328e-7 
vn 0.0000028610199933609692 1 -5.642610858558328e-7 
vn 0.0000028610199933609692 1 -5.642610858558328e-7 
vn 0.0000028610199933609692 1 -5.642610858558328e-7 
vn 0.0000028610195386136184 1 -5.642610858558328e-7 
vn 0.0000028610195386136184 1 -5.642610858558328e-7 
vn 0.0000028610195386136184 1 -5.642610858558328e-7 
vn 0.0000028610199933609692 1 -5.642610858558328e-7 
s on 
f 1//1 2//2 3//3 
f 2//2 2//2 3//3 
f 3//3 2//2 4//4 
f 2//2 5//5 4//4 
f 4//4 5//5 6//6 
f 5//5 7//7 6//6 
f 6//6 7//7 8//8 
f 7//7 9//9 8//8 
f 8//8 9//9 10//10 
f 9//9 11//11 10//10 
f 10//10 11//11 12//12 
f 11//11 13//13 12//12 
f 12//12 13//13 13//13 
f 13//13 12//12 13//13 
f 13//13 12//12 12//12 
f 12//12 14//14 12//12 
f 12//12 14//14 10//10 
f 14//14 15//15 10//10 
f 10//10 15//15 8//8 
f 15//15 16//16 8//8 
f 8//8 16//16 6//6 
f 16//16 17//17 6//6 
f 6//6 17//17 4//4 
f 17//17 18//18 4//4 
f 4//4 18//18 3//3 
f 18//18 19//19 3//3 
f 3//3 19//19 20//20 
f 19//19 19//19 20//20 
f 20//20 19//19 21//21 
f 19//19 22//22 21//21 
f 21//21 22//22 23//23 
f 22//22 23//23 23//23 
f 23//23 23//23 15//15 
f 23//23 15//15 15//15 
f 15//15 15//15 24//24 
f 15//15 14//14 24//24 
f 24//24 14//14 14//14 
f 14//14 3//3 14//14 
f 14//14 3//3 3//3 
f 3//3 20//20 3//3 
f 3//3 20//20 1//1 
f 20//20 1//1 1//1 
f 1//1 1//1 22//22 
f 1//1 22//22 22//22 
f 22//22 22//22 25//25 
f 22//22 19//19 25//25 
f 25//25 19//19 25//25 
f 19//19 18//18 25//25 
f 25//25 18//18 26//26 
f 18//18 17//17 26//26 
f 26//26 17//17 27//27 
f 17//17 16//16 27//27 
f 27//27 16//16 28//28 
f 16//16 15//15 28//28 
f 28//28 15//15 28//28 
f 15//15 24//24 28//28 
f 28//28 24//24 28//28 
f 24//24 29//29 28//28 
f 28//28 29//29 30//30 
f 29//29 31//31 30//30 
f 30//30 31//31 31//31 
f 31//31 28//28 31//31 
f 31//31 28//28 28//28 
f 28//28 30//30 28//28 
f 28//28 30//30 27//27 
f 30//30 32//32 27//27 
f 27//27 32//32 26//26 
f 32//32 33//33 26//26 
f 26//26 33//33 25//25 
f 33//33 34//34 25//25 
f 25//25 34//34 22//22 
f 34//34 35//35 22//22 
f 22//22 35//35 23//23 
f 35//35 35//35 23//23 
f 23//23 35//35 36//36 
f 35//35 37//37 36//36 
f 36//36 37//37 38//38 
f 37//37 39//39 38//38 
f 38//38 39//39 40//40 
f 39//39 40//40 40//40 
f 40//40 40//40 39//39 
f 40//40 39//39 39//39 
f 39//39 39//39 41//41 
f 39//39 37//37 41//41 
f 41//41 37//37 42//42 
f 37//37 35//35 42//42 
f 42//42 35//35 42//42 
f 35//35 34//34 42//42 
f 42//42 34//34 43//43 
f 34//34 33//33 43//43 
f 43//43 33//33 44//44 
f 33//33 32//32 44//44 
f 44//44 32//32 45//45 
f 32//32 30//30 45//45 
f 45//45 30//30 45//45 
f 30//30 31//31 45//45 
f 45//45 31//31 45//45 
f 31//31 46//46 45//45 
f 45//45 46//46 45//45 
f 46//46 47//47 45//45 
f 45//45 47//47 44//44 
f 47//47 48//48 44//44 
f 44//44 48//48 43//43 
f 48//48 49//49 43//43 
f 43//43 49//49 42//42 
f 49//49 41//41 42//42 
f 42//42 41//41 41//41 
f 41//41 50//50 41//41 
f 41//41 50//50 50//50 
f 50//50 51//51 50//50 
f 50//50 51//51 52//52 
f 51//51 53//53 52//52 
f 52//52 53//53 53//53 
f 53//53 51//51 53//53 
f 53//53 51//51 51//51 
f 51//51 50//50 51//51 
f 51//51 50//50 54//54 
f 50//50 55//55 54//54 
f 54//54 55//55 56//56 
f 55//55 57//57 56//56 
f 56//56 57//57 58//58 
f 57//57 59//59 58//58 
f 58//58 59//59 60//60 
f 59//59 61//61 60//60 
f 60//60 61//61 62//62 
f 61//61 63//63 62//62 
f 62//62 63//63 64//64 
f 63//63 65//65 64//64 
f 64//64 65//65 66//66 
f 65//65 67//67 66//66 
f 66//66 67//67 68//68 
f 67//67 69//69 68//68 
f 68//68 69//69 70//70 
f 69//69 71//71 70//70 
f 70//70 71//71 72//72 
f 71//71 73//73 72//72 
f 72//72 73//73 74//74 
f 73//73 75//75 74//74 
f 74//74 75//75 76//76 
f 75//75 77//77 76//76 
f 76//76 77//77 78//78 
f 77//77 79//79 78//78 
f 78//78 79//79 80//80 
f 79//79 81//81 80//80 
f 80//80 81//81 82//82 
f 81//81 83//83 82//82 
f 82//82 83//83 84//84 
f 83//83 85//85 84//84 
f 84//84 85//85 86//86 
f 85//85 87//87 86//86 
f 86//86 87//87 88//88 
f 87//87 89//89 88//88 
f 88//88 89//89 90//90 
f 89//89 91//91 90//90 
f 90//90 91//91 92//92 
f 91//91 93//93 92//92 
f 92//92 93//93 94//94 
f 93//93 95//95 94//94 
f 94//94 95//95 1//1 
f 95//95 96//96 1//1 
f 1//1 96//96 53//53 
f 96//96 96//96 53//53 
f 53//53 96//96 52//52 
f 96//96 97//97 52//52 
f 52//52 97//97 98//98 
f 97//97 98//98 98//98 
f 98//98 98//98 97//97 
f 98//98 97//97 97//97 
f 97//97 97//97 99//99 
f 97//97 96//96 99//99 
f 99//99 96//96 99//99 
f 96//96 95//95 99//99 
f 99//99 95//95 100//100 
f 95//95 93//93 100//100 
f 100//100 93//93 101//101 
f 93//93 91//91 101//101 
f 101//101 91//91 102//102 
f 91//91 89//89 102//102 
f 102//102 89//89 103//103 
f 89//89 87//87 103//103 
f 103//103 87//87 104//104 
f 87//87 85//85 104//104 
f 104//104 85//85 105//105 
f 85//85 83//83 105//105 
f 105//105 83//83 106//106 
f 83//83 81//81 106//106 
f 106//106 81//81 107//107 
f 81//81 79//79 107//107 
f 107//107 79//79 108//108 
f 79//79 77//77 108//108 
f 108//108 77//77 109//109 
f 77//77 75//75 109//109 
f 109//109 75//75 110//110 
f 75//75 73//73 110//110 
f 110//110 73//73 111//111 
f 73//73 71//71 111//111 
f 111//111 71//71 112//112 
f 71//71 69//69 112//112 
f 112//112 69//69 113//113 
f 69//69 67//67 113//113 
f 113//113 67//67 114//114 
f 67//67 65//65 114//114 
f 114//114 65//65 115//115 
f 65//65 63//63 115//115 
f 115//115 63//63 116//116 
f 63//63 61//61 116//116 
f 116//116 61//61 117//117 
f 61//61 59//59 117//117 
f 117//117 59//59 118//118 
f 59//59 57//57 118//118 
f 118//118 57//57 119//119 
f 57//57 55//55 119//119 
f 119//119 55//55 120//120 
f 55//55 50//50 120//120 
f 120//120 50//50 98//98 
f 50//50 52//52 98//98 

