mtllib model_23.mtl
o model_23
v 161.197021484375 757.677978515625 -227.63099670410156 
v 161.19699096679688 757.677978515625 -236.6309814453125 
v 170.19700622558594 757.677978515625 -227.63101196289062 
v 170.19699096679688 757.677978515625 -236.63099670410156 
vn -3.745912434405252e-12 -1 -0.0000018199300484411651 
vn -3.745912434405252e-12 -1 -0.0000018199300484411651 
vn -3.745912434405252e-12 -1 -0.0000018199300484411651 
vn -3.745912434405252e-12 -1 -0.0000018199300484411651 
s on 
f 1//1 2//2 3//3 
f 2//2 4//4 3//3 

