mtllib model_55.mtl
o model_55
v -64.24972534179688 860.573974609375 -428.4049987792969 
v -64.24972534179688 865.0867309570312 -428.4049987792969 
v -59.75040054321289 860.573974609375 -428.4049987792969 
v -59.75040054321289 865.0867309570312 -428.4049987792969 
v -55.39167785644531 860.573974609375 -428.4049987792969 
v -55.39167785644531 865.0867309570312 -428.4049987792969 
v -50.89234924316406 860.573974609375 -428.4049987792969 
v -50.89234924316406 865.0867309570312 -428.4049987792969 
v -46.39302062988281 860.573974609375 -428.4049987792969 
v -46.39302062988281 865.0867309570312 -428.4049987792969 
v -64.24972534179688 869.5994873046875 -428.4049987792969 
v -59.75040054321289 869.5994873046875 -428.4049987792969 
v -55.39167785644531 869.5994873046875 -428.4049987792969 
v -50.89234924316406 869.5994873046875 -428.4049987792969 
v -46.39302062988281 869.5994873046875 -428.4049987792969 
v -50.89234924316406 873.9712524414062 -428.4049987792969 
v -46.39302062988281 873.9712524414062 -428.4049987792969 
v -50.89234924316406 878.4840087890625 -428.4049987792969 
v -46.39302062988281 878.4840087890625 -428.4049987792969 
v -64.24972534179688 873.9712524414062 -428.4049987792969 
v -59.75040054321289 873.9712524414062 -428.4049987792969 
v -64.24972534179688 878.4840087890625 -428.4049987792969 
v -59.75040054321289 878.4840087890625 -428.4049987792969 
v -55.39167785644531 873.9712524414062 -428.4049987792969 
v -55.39167785644531 878.4840087890625 -428.4049987792969 
vn 5.642600058308744e-7 -1.6292099758175027e-7 -1 
vn 5.642600058308744e-7 -1.6292099758175027e-7 -1 
vn 5.642600058308744e-7 -1.6292099758175027e-7 -1 
vn 5.642600058308744e-7 -1.6292099758175027e-7 -1 
vn 5.642600058308744e-7 -1.6292099758175027e-7 -1 
vn 5.642600058308744e-7 -1.6292099758175027e-7 -1 
vn 5.642600058308744e-7 -1.6292099758175027e-7 -1 
vn 5.642600058308744e-7 -1.6292099758175027e-7 -1 
vn 5.642600058308744e-7 -1.6292099758175027e-7 -1 
vn 5.642600058308744e-7 -1.6292099758175027e-7 -1 
vn 5.642600058308744e-7 -1.6292099758175027e-7 -1 
vn 5.642600058308744e-7 -1.6292099758175027e-7 -1 
vn 5.642600058308744e-7 -1.6292099758175027e-7 -1 
vn 5.642600058308744e-7 -1.6292099758175027e-7 -1 
vn 5.642600058308744e-7 -1.6292099758175027e-7 -1 
vn 5.642600058308744e-7 -1.6292099758175027e-7 -1 
vn 5.642600058308744e-7 -1.6292099758175027e-7 -1 
vn 5.642600058308744e-7 -1.6292099758175027e-7 -1 
vn 5.642600058308744e-7 -1.6292099758175027e-7 -1 
vn 5.642600058308744e-7 -1.6292099758175027e-7 -1 
vn 5.642600058308744e-7 -1.6292099758175027e-7 -1 
vn 5.642600058308744e-7 -1.6292099758175027e-7 -1 
vn 5.642600058308744e-7 -1.6292099758175027e-7 -1 
vn 5.642600058308744e-7 -1.6292099758175027e-7 -1 
vn 5.642600058308744e-7 -1.6292099758175027e-7 -1 
s on 
f 1//1 2//2 3//3 
f 2//2 4//4 3//3 
f 3//3 4//4 5//5 
f 4//4 6//6 5//5 
f 5//5 6//6 7//7 
f 6//6 8//8 7//7 
f 7//7 8//8 9//9 
f 8//8 10//10 9//9 
f 9//9 10//10 10//10 
f 10//10 2//2 10//10 
f 10//10 2//2 2//2 
f 2//2 11//11 2//2 
f 2//2 11//11 4//4 
f 11//11 12//12 4//4 
f 4//4 12//12 6//6 
f 12//12 13//13 6//6 
f 6//6 13//13 8//8 
f 13//13 14//14 8//8 
f 8//8 14//14 10//10 
f 14//14 14//14 10//10 
f 10//10 14//14 15//15 
f 14//14 16//16 15//15 
f 15//15 16//16 17//17 
f 16//16 18//18 17//17 
f 17//17 18//18 19//19 
f 18//18 19//19 19//19 
f 19//19 19//19 11//11 
f 19//19 11//11 11//11 
f 11//11 11//11 12//12 
f 11//11 20//20 12//12 
f 12//12 20//20 21//21 
f 20//20 22//22 21//21 
f 21//21 22//22 21//21 
f 22//22 23//23 21//21 
f 21//21 23//23 24//24 
f 23//23 25//25 24//24 
f 24//24 25//25 16//16 
f 25//25 18//18 16//16 
f 16//16 18//18 18//18 
f 18//18 16//16 18//18 
f 18//18 16//16 16//16 
f 16//16 14//14 16//16 
f 16//16 14//14 24//24 
f 14//14 13//13 24//24 
f 24//24 13//13 21//21 
f 13//13 12//12 21//21 

