mtllib model_44.mtl
o model_44
v 279.637451171875 762.6943359375 -106.7428970336914 
v 283.1310119628906 762.8318481445312 -109.80329132080078 
v 279.33953857421875 762.8318481445312 -109.80329132080078 
v 282.9831237792969 763.3272094726562 -112.77405548095703 
v 279.1938781738281 763.3272094726562 -112.77405548095703 
v 282.9831237792969 764.4508056640625 -115.51432800292969 
v 279.1938781738281 764.4508056640625 -115.51432800292969 
v 283.0647888183594 765.7639770507812 -118.30581665039062 
v 279.2733154296875 765.7639770507812 -118.30581665039062 
v 283.1442565917969 766.7263793945312 -120.70034790039062 
v 279.352783203125 766.7263793945312 -120.70034790039062 
v 283.1442565917969 767.4469604492188 -123.7607421875 
v 279.352783203125 767.4469604492188 -123.7607421875 
v 283.0714111328125 767.4469604492188 -126.82113647460938 
v 279.2799377441406 767.4469604492188 -126.82113647460938 
v 282.9257507324219 767.4469604492188 -129.8943328857422 
v 279.13427734375 767.4469604492188 -129.8943328857422 
v 282.7028503417969 767.4469604492188 -132.95474243164062 
v 278.911376953125 767.4469604492188 -132.95474243164062 
v 283.4289245605469 762.6943359375 -106.7428970336914 
v 279.637451171875 762.5947875976562 -106.7428970336914 
v 279.33953857421875 762.7322387695312 -109.81610107421875 
v 283.1310119628906 762.7322387695312 -109.81610107421875 
v 282.9831237792969 763.2300415039062 -112.79966735839844 
v 279.1938781738281 763.2300415039062 -112.79966735839844 
v 282.9831237792969 764.3583374023438 -115.56554412841797 
v 279.1938781738281 764.3583374023438 -115.56554412841797 
v 283.0647888183594 765.6715698242188 -118.34423065185547 
v 279.2733154296875 765.6715698242188 -118.34423065185547 
v 283.1442565917969 766.631591796875 -120.72595977783203 
v 279.352783203125 766.631591796875 -120.72595977783203 
v 283.1442565917969 767.347412109375 -123.77355194091797 
v 279.352783203125 767.347412109375 -123.77355194091797 
v 283.0714111328125 767.347412109375 -126.82113647460938 
v 279.2799377441406 767.347412109375 -126.82113647460938 
v 282.9257507324219 767.347412109375 -129.8943328857422 
v 279.13427734375 767.347412109375 -129.8943328857422 
v 282.7028503417969 767.347412109375 -132.95474243164062 
v 278.911376953125 767.347412109375 -132.95474243164062 
v 283.4289245605469 762.5947875976562 -106.7428970336914 
v 283.4289245605469 762.5947875976562 -106.7428970336914 
v 283.1310119628906 762.8318481445312 -109.80329132080078 
v 283.1310119628906 762.7322387695312 -109.81610107421875 
v 282.9831237792969 763.3272094726562 -112.77405548095703 
v 282.9831237792969 763.2300415039062 -112.79966735839844 
v 282.9831237792969 764.4508056640625 -115.51432800292969 
v 282.9831237792969 764.3583374023438 -115.56554412841797 
v 283.0647888183594 765.7639770507812 -118.30581665039062 
v 283.0647888183594 765.6715698242188 -118.34423065185547 
v 283.1442565917969 766.7263793945312 -120.70034790039062 
v 283.1442565917969 766.631591796875 -120.72595977783203 
v 283.1442565917969 767.4469604492188 -123.7607421875 
v 283.1442565917969 767.347412109375 -123.77355194091797 
v 283.0714111328125 767.4469604492188 -126.82113647460938 
v 283.0714111328125 767.347412109375 -126.82113647460938 
v 282.9257507324219 767.4469604492188 -129.8943328857422 
v 282.9257507324219 767.347412109375 -129.8943328857422 
v 282.7028503417969 767.4469604492188 -132.95474243164062 
v 282.7028503417969 767.347412109375 -132.95474243164062 
v 283.4289245605469 762.6943359375 -106.7428970336914 
v 278.911376953125 767.347412109375 -132.95474243164062 
v 279.13427734375 767.4469604492188 -129.8943328857422 
v 279.13427734375 767.347412109375 -129.8943328857422 
v 279.2799377441406 767.4469604492188 -126.82113647460938 
v 279.2799377441406 767.347412109375 -126.82113647460938 
v 279.352783203125 767.4469604492188 -123.7607421875 
v 279.352783203125 767.347412109375 -123.77355194091797 
v 279.352783203125 766.7263793945312 -120.70034790039062 
v 279.352783203125 766.631591796875 -120.72595977783203 
v 279.2733154296875 765.7639770507812 -118.30581665039062 
v 279.2733154296875 765.6715698242188 -118.34423065185547 
v 279.1938781738281 764.4508056640625 -115.51432800292969 
v 279.1938781738281 764.3583374023438 -115.56554412841797 
v 279.1938781738281 763.3272094726562 -112.77405548095703 
v 279.1938781738281 763.2300415039062 -112.79966735839844 
v 279.33953857421875 762.8318481445312 -109.80329132080078 
v 279.33953857421875 762.7322387695312 -109.81610107421875 
v 279.637451171875 762.6943359375 -106.7428970336914 
v 279.637451171875 762.5947875976562 -106.7428970336914 
v 278.911376953125 767.4469604492188 -132.95474243164062 
v 279.637451171875 762.6943359375 -106.7428970336914 
v 283.4289245605469 762.6943359375 -106.7428970336914 
v 279.637451171875 762.5947875976562 -106.7428970336914 
v 283.4289245605469 762.5947875976562 -106.7428970336914 
v 282.7028503417969 767.4469604492188 -132.95474243164062 
v 278.911376953125 767.4469604492188 -132.95474243164062 
v 282.7028503417969 767.347412109375 -132.95474243164062 
v 278.911376953125 767.347412109375 -132.95474243164062 
vn 0.003607067046687007 0.9990455508232117 0.04353082552552223 
vn 0.0018539319280534983 0.994954526424408 0.10030980408191681 
vn 3.3772650339302865e-14 0.9940398335456848 0.10901768505573273 
vn -0.0018808468012139201 0.962351381778717 0.2718018889427185 
vn -0.0018768537556752563 0.961154580116272 0.27600428462028503 
vn 0.0018797018565237522 0.9150791168212891 0.4032699465751648 
vn 0.0018797018565237522 0.9150791168212891 0.4032699465751648 
vn 0.0018834020011126995 0.916832447052002 0.39926770329475403 
vn 0.0018834020011126995 0.916832447052002 0.39926770329475403 
vn 9.35487649259166e-14 0.953589141368866 0.3011109232902527 
vn 9.35487649259166e-14 0.953589141368866 0.3011109232902527 
vn -0.0018674257444217801 0.9930492043495178 0.11768529564142227 
vn 3.511785385602352e-14 0.9935539960861206 0.1133599802851677 
vn 0 1 2.2204500197172533e-16 
vn 0 1 2.2204500197172533e-16 
vn 0 1 2.2204500197172533e-16 
vn 0 1 2.2204500197172533e-16 
vn 0 1 2.2204500197172533e-16 
vn 0 1 2.2204500197172533e-16 
vn 0.003607067046687007 0.9990455508232117 0.04353082552552223 
vn -4.517018337602159e-15 -0.9990455508232117 -0.043680015951395035 
vn -0.003804662497714162 -0.9940398335456848 -0.10895127803087234 
vn -0.0018985996721312404 -0.994954526424408 -0.10030896961688995 
vn 0.003778246697038412 -0.962351381778717 -0.27178213000297546 
vn 0.0018932452658191323 -0.961154580116272 -0.27600419521331787 
vn -0.0018909238278865814 -0.9150791168212891 -0.40326988697052 
vn -0.0018909238278865814 -0.9150791168212891 -0.40326988697052 
vn -4.12893528503773e-14 -0.916832447052002 -0.3992721438407898 
vn -4.12893528503773e-14 -0.916832447052002 -0.3992721438407898 
vn -0.0037837717682123184 -0.953589141368866 -0.3010871410369873 
vn -0.0037837717682123184 -0.953589141368866 -0.3010871410369873 
vn 0.0019059260375797749 -0.9930492043495178 -0.11768467724323273 
vn -0.0037879212759435177 -0.9935539960861206 -0.11329668015241623 
vn -2.0682311115474694e-13 -1 -2.2204500197172533e-16 
vn -2.0682311115474694e-13 -1 -2.2204500197172533e-16 
vn -2.0682311115474694e-13 -1 -2.2204500197172533e-16 
vn -2.0682311115474694e-13 -1 -2.2204500197172533e-16 
vn -2.0682311115474694e-13 -1 -2.2204500197172533e-16 
vn -2.0682311115474694e-13 -1 -2.2204500197172533e-16 
vn -4.517018337602159e-15 -0.9990455508232117 -0.043680015951395035 
vn 0.9951633810997009 0.006554040592163801 -0.09801503270864487 
vn 0.9971283674240112 0.006554040592163801 -0.07544567435979843 
vn 0.9971283674240112 0.006554040592163801 -0.07544567435979843 
vn 0.999721884727478 0.006554040592163801 -0.02265329100191593 
vn 0.999721884727478 0.006554040592163801 -0.02265329100191593 
vn 0.9998644590377808 -0.006554040592163801 0.015102911740541458 
vn 0.9998644590377808 -0.006554040592163801 0.015102911740541458 
vn 0.9996837377548218 -0.010923261754214764 0.02265242673456669 
vn 0.9996837377548218 -0.010923261754214764 0.02265242673456669 
vn 0.9998644590377808 -0.006554040592163801 0.015102911740541458 
vn 0.9998644590377808 -0.006554040592163801 0.015102911740541458 
vn 0.9998835325241089 0.002184694167226553 -0.015103200450539589 
vn 0.9998835325241089 0.002184694167226553 -0.015103200450539589 
vn 0.9992848038673401 0.002184694167226553 -0.03775046393275261 
vn 0.9992848038673401 0.002184694167226553 -0.03775046393275261 
vn 0.998173177242279 0.002184694167226553 -0.06037835404276848 
vn 0.998173177242279 0.002184694167226553 -0.06037835404276848 
vn 0.9971474409103394 0.002184694167226553 -0.07544711232185364 
vn 0.9971474409103394 0.002184694167226553 -0.07544711232185364 
vn 0.9951633810997009 0.006554040592163801 -0.09801503270864487 
vn -0.9971474409103394 0.002184694167226553 0.07544711232185364 
vn -0.998173177242279 0.002184694167226553 0.06037835404276848 
vn -0.998173177242279 0.002184694167226553 0.06037835404276848 
vn -0.9992848038673401 -0.002184694167226553 0.03775046393275261 
vn -0.9992848038673401 -0.002184694167226553 0.03775046393275261 
vn -0.9998835325241089 -0.002184694167226553 0.015103200450539589 
vn -0.9998835325241089 -0.002184694167226553 0.015103200450539589 
vn -0.9998644590377808 0.006554040592163801 -0.015102911740541458 
vn -0.9998644590377808 0.006554040592163801 -0.015102911740541458 
vn -0.9996837377548218 0.010923261754214764 -0.02265242673456669 
vn -0.9996837377548218 0.010923261754214764 -0.02265242673456669 
vn -0.9998644590377808 0.006554040592163801 -0.015102911740541458 
vn -0.9998644590377808 0.006554040592163801 -0.015102911740541458 
vn -0.999721884727478 -0.006554040592163801 0.02265329100191593 
vn -0.999721884727478 -0.006554040592163801 0.02265329100191593 
vn -0.9971283674240112 -0.006554040592163801 0.07544567435979843 
vn -0.9971283674240112 -0.006554040592163801 0.07544567435979843 
vn -0.9951633810997009 -0.006554040592163801 0.09801503270864487 
vn -0.9951633810997009 -0.006554040592163801 0.09801503270864487 
vn -0.9971474409103394 0.002184694167226553 0.07544711232185364 
vn -0.0018882581498473883 -0.04586252197623253 0.998945951461792 
vn -0.0018882581498473883 -0.04586252197623253 0.998945951461792 
vn -0.0018882581498473883 -0.04586252197623253 0.998945951461792 
vn -0.0018882581498473883 -0.04586252197623253 0.998945951461792 
vn -1.0341130485562108e-13 0.002184694167226553 -0.999997615814209 
vn -1.0341130485562108e-13 0.002184694167226553 -0.999997615814209 
vn -1.0341130485562108e-13 0.002184694167226553 -0.999997615814209 
vn -1.0341130485562108e-13 0.002184694167226553 -0.999997615814209 
s on 
f 1//1 2//2 3//3 
f 2//2 4//4 3//3 
f 3//3 4//4 5//5 
f 4//4 6//6 5//5 
f 5//5 6//6 7//7 
f 6//6 8//8 7//7 
f 7//7 8//8 9//9 
f 8//8 10//10 9//9 
f 9//9 10//10 11//11 
f 10//10 12//12 11//11 
f 11//11 12//12 13//13 
f 12//12 14//14 13//13 
f 13//13 14//14 15//15 
f 14//14 16//16 15//15 
f 15//15 16//16 17//17 
f 16//16 18//18 17//17 
f 17//17 18//18 19//19 
f 18//18 19//19 19//19 
f 19//19 19//19 1//1 
f 19//19 1//1 1//1 
f 1//1 1//1 2//2 
f 1//1 20//20 2//2 
f 2//2 20//20 20//20 
f 20//20 21//21 20//20 
f 20//20 21//21 21//21 
f 21//21 22//22 21//21 
f 21//21 22//22 23//23 
f 22//22 22//22 23//23 
f 23//23 22//22 24//24 
f 22//22 25//25 24//24 
f 24//24 25//25 26//26 
f 25//25 27//27 26//26 
f 26//26 27//27 28//28 
f 27//27 29//29 28//28 
f 28//28 29//29 30//30 
f 29//29 31//31 30//30 
f 30//30 31//31 32//32 
f 31//31 33//33 32//32 
f 32//32 33//33 34//34 
f 33//33 35//35 34//34 
f 34//34 35//35 36//36 
f 35//35 37//37 36//36 
f 36//36 37//37 38//38 
f 37//37 39//39 38//38 
f 38//38 39//39 39//39 
f 39//39 23//23 39//39 
f 39//39 23//23 23//23 
f 23//23 40//40 23//23 
f 23//23 40//40 21//21 
f 40//40 21//21 21//21 
f 21//21 21//21 41//41 
f 21//21 41//41 41//41 
f 41//41 41//41 42//42 
f 41//41 43//43 42//42 
f 42//42 43//43 44//44 
f 43//43 45//45 44//44 
f 44//44 45//45 46//46 
f 45//45 47//47 46//46 
f 46//46 47//47 48//48 
f 47//47 49//49 48//48 
f 48//48 49//49 50//50 
f 49//49 51//51 50//50 
f 50//50 51//51 52//52 
f 51//51 53//53 52//52 
f 52//52 53//53 54//54 
f 53//53 55//55 54//54 
f 54//54 55//55 56//56 
f 55//55 57//57 56//56 
f 56//56 57//57 58//58 
f 57//57 59//59 58//58 
f 58//58 59//59 59//59 
f 59//59 42//42 59//59 
f 59//59 42//42 42//42 
f 42//42 60//60 42//42 
f 42//42 60//60 41//41 
f 60//60 41//41 41//41 
f 41//41 41//41 61//61 
f 41//41 61//61 61//61 
f 61//61 61//61 62//62 
f 61//61 63//63 62//62 
f 62//62 63//63 64//64 
f 63//63 65//65 64//64 
f 64//64 65//65 66//66 
f 65//65 67//67 66//66 
f 66//66 67//67 68//68 
f 67//67 69//69 68//68 
f 68//68 69//69 70//70 
f 69//69 71//71 70//70 
f 70//70 71//71 72//72 
f 71//71 73//73 72//72 
f 72//72 73//73 74//74 
f 73//73 75//75 74//74 
f 74//74 75//75 76//76 
f 75//75 77//77 76//76 
f 76//76 77//77 78//78 
f 77//77 79//79 78//78 
f 78//78 79//79 79//79 
f 79//79 62//62 79//79 
f 79//79 62//62 62//62 
f 62//62 80//80 62//62 
f 62//62 80//80 61//61 
f 80//80 61//61 61//61 
f 61//61 61//61 81//81 
f 61//61 81//81 81//81 
f 81//81 81//81 82//82 
f 81//81 83//83 82//82 
f 82//82 83//83 84//84 
f 83//83 84//84 84//84 
f 84//84 84//84 85//85 
f 84//84 85//85 85//85 
f 85//85 85//85 86//86 
f 85//85 87//87 86//86 
f 86//86 87//87 88//88 

