mtllib model_104.mtl
o model_104
v 2317.21728515625 1.909000039100647 -81.30660247802734 
v 2317.21728515625 1301.9063720703125 -81.306396484375 
v 1017.219970703125 1.909000039100647 -81.30660247802734 
v 1017.219970703125 1301.9063720703125 -81.306396484375 
vn 0 -1.6292099758175027e-7 1 
vn 0 -1.6292099758175027e-7 1 
vn 0 -1.6292099758175027e-7 1 
vn 0 -1.6292099758175027e-7 1 
vt 0.9999993443489075 5.96045985901128e-8 
vt 0.9999993443489075 0.9999993443489075 
vt 5.96045985901128e-8 5.96045985901128e-8 
vt 5.96045985901128e-8 0.9999993443489075 
s on 
f 1/1/1 2/2/2 3/3/3 
f 2/2/2 4/4/4 3/3/3 

