mtllib model_32.mtl
o model_32
v -596.2665405273438 4.750945568084717 75.2131576538086 
v -596.2665405273438 8.220392227172852 75.21316528320312 
v -590.7814331054688 4.750945568084717 75.21316528320312 
v -590.7814331054688 8.220392227172852 75.21316528320312 
v 317.33404541015625 1.2368571758270264 97.21424865722656 
v 313.8645935058594 1.2368571758270264 97.2142562866211 
v 317.3340148925781 1.2368667125701904 91.7291488647461 
v 313.86456298828125 1.2368667125701904 91.72915649414062 
v -206.93218994140625 4.605623245239258 72.88243865966797 
v -206.93218994140625 8.075069427490234 72.88243865966797 
v -201.4470977783203 4.605623245239258 72.88243865966797 
v -201.4470977783203 8.075069427490234 72.88243865966797 
v 247.83084106445312 4.605906009674072 74.42493438720703 
v 247.83084106445312 8.07535171508789 74.42493438720703 
v 253.31593322753906 4.605906009674072 74.42493438720703 
v 253.31593322753906 8.07535171508789 74.42493438720703 
v -517.9899291992188 1.3818316459655762 99.92525482177734 
v -521.4593505859375 1.3818316459655762 99.92525482177734 
v -517.9899291992188 1.3818386793136597 94.44014739990234 
v -521.4593505859375 1.3818386793136597 94.44015502929688 
v -919.5341796875 4.750673294067383 75.59243774414062 
v -919.5341796875 8.22011947631836 75.59243774414062 
v -914.049072265625 4.750673294067383 75.59243774414062 
v -914.049072265625 8.22011947631836 75.59243774414062 
vn 3.261091023887275e-7 9.982308313283283e-8 -1.0000009536743164 
vn 3.261091023887275e-7 9.982308313283283e-8 -1.0000009536743164 
vn 3.261091023887275e-7 9.982308313283283e-8 -1.0000009536743164 
vn 3.261091023887275e-7 9.982308313283283e-8 -1.0000009536743164 
vn -3.503391804091094e-12 -1 -0.000001756350002324325 
vn -3.503391804091094e-12 -1 -0.000001756350002324325 
vn -3.503391804091094e-12 -1 -0.000001756350002324325 
vn -3.503391804091094e-12 -1 -0.000001756350002324325 
vn 3.261091023887275e-7 9.982308313283283e-8 -1.0000009536743164 
vn 3.261091023887275e-7 9.982308313283283e-8 -1.0000009536743164 
vn 3.261091023887275e-7 9.982308313283283e-8 -1.0000009536743164 
vn 3.261091023887275e-7 9.982308313283283e-8 -1.0000009536743164 
vn -2.358322070961094e-8 9.982308313283283e-8 -1.0000009536743164 
vn -2.358322070961094e-8 9.982308313283283e-8 -1.0000009536743164 
vn -2.358322070961094e-8 9.982308313283283e-8 -1.0000009536743164 
vn -2.358322070961094e-8 9.982308313283283e-8 -1.0000009536743164 
vn -1.942099476029413e-12 -1 -0.0000012795200063919765 
vn -1.942099476029413e-12 -1 -0.0000012795200063919765 
vn -1.942099476029413e-12 -1 -0.0000012795200063919765 
vn -1.942099476029413e-12 -1 -0.0000012795200063919765 
vn 3.261091023887275e-7 9.982308313283283e-8 -1.0000009536743164 
vn 3.261091023887275e-7 9.982308313283283e-8 -1.0000009536743164 
vn 3.261091023887275e-7 9.982308313283283e-8 -1.0000009536743164 
vn 3.261091023887275e-7 9.982308313283283e-8 -1.0000009536743164 
s on 
f 1//1 2//2 3//3 
f 2//2 4//4 3//3 
f 3//3 4//4 4//4 
f 4//4 5//5 4//4 
f 4//4 5//5 5//5 
f 5//5 6//6 5//5 
f 5//5 6//6 7//7 
f 6//6 8//8 7//7 
f 7//7 8//8 8//8 
f 8//8 9//9 8//8 
f 8//8 9//9 9//9 
f 9//9 10//10 9//9 
f 9//9 10//10 11//11 
f 10//10 12//12 11//11 
f 11//11 12//12 12//12 
f 12//12 13//13 12//12 
f 12//12 13//13 13//13 
f 13//13 14//14 13//13 
f 13//13 14//14 15//15 
f 14//14 16//16 15//15 
f 15//15 16//16 16//16 
f 16//16 17//17 16//16 
f 16//16 17//17 17//17 
f 17//17 18//18 17//17 
f 17//17 18//18 19//19 
f 18//18 20//20 19//19 
f 19//19 20//20 20//20 
f 20//20 21//21 20//20 
f 20//20 21//21 21//21 
f 21//21 22//22 21//21 
f 21//21 22//22 23//23 
f 22//22 24//24 23//23 

