mtllib model_105.mtl
o model_105
v 307.7319641113281 480.56298828125 -77.6681900024414 
v 307.7319641113281 480.56298828125 -91.07595825195312 
v -309.4004211425781 480.56298828125 -77.6681900024414 
v -309.4004211425781 480.56298828125 -91.07595825195312 
v 304.9678649902344 16.056840896606445 -150.8920135498047 
v 304.9678649902344 37.13787078857422 -150.89199829101562 
v 256.6599426269531 16.056840896606445 -150.8920135498047 
v 256.6599426269531 37.13787078857422 -150.89199829101562 
v 208.3520050048828 16.056840896606445 -150.8920135498047 
v 208.3520050048828 37.13787078857422 -150.89199829101562 
v 160.0440673828125 16.056840896606445 -150.8920135498047 
v 160.0440673828125 37.13787078857422 -150.89199829101562 
v 111.73612213134766 16.056840896606445 -150.8920135498047 
v 111.73612213134766 37.13787078857422 -150.89199829101562 
v 304.9678649902344 58.21889877319336 -150.89199829101562 
v 256.6599426269531 58.21889877319336 -150.89199829101562 
v 208.3520050048828 58.21889877319336 -150.89199829101562 
v 160.0440673828125 58.21889877319336 -150.89199829101562 
v 111.73612213134766 58.21889877319336 -150.89199829101562 
v 160.0440673828125 79.2999267578125 -150.89199829101562 
v 111.73612213134766 79.2999267578125 -150.89199829101562 
v 160.0440673828125 100.3809585571289 -150.89199829101562 
v 111.73612213134766 100.3809585571289 -150.89199829101562 
v 304.9678649902344 79.2999267578125 -150.89199829101562 
v 256.6599426269531 79.2999267578125 -150.89199829101562 
v 304.9678649902344 100.3809585571289 -150.89199829101562 
v 256.6599426269531 100.3809585571289 -150.89199829101562 
v 208.3520050048828 79.2999267578125 -150.89199829101562 
v 208.3520050048828 100.3809585571289 -150.89199829101562 
v 296.44488525390625 17.107820510864258 -157.4072265625 
v 296.44488525390625 17.107818603515625 -138.1858673095703 
v 252.3984375 17.107820510864258 -157.4072265625 
v 252.3984375 17.107818603515625 -138.1858673095703 
v 208.3520050048828 17.107820510864258 -157.4072265625 
v 208.3520050048828 17.107818603515625 -138.1858673095703 
v 164.30555725097656 17.107820510864258 -157.4072265625 
v 164.30555725097656 17.107818603515625 -138.1858673095703 
v 120.25910949707031 17.107820510864258 -157.4072265625 
v 120.25910949707031 17.107818603515625 -138.1858673095703 
v 296.44488525390625 17.107810974121094 -118.9645004272461 
v 252.3984375 17.107810974121094 -118.9645004272461 
v 208.3520050048828 17.107810974121094 -118.9645004272461 
v 164.30555725097656 17.107810974121094 -118.9645004272461 
v 120.25910949707031 17.107810974121094 -118.9645004272461 
v 164.30555725097656 17.107807159423828 -99.7431411743164 
v 120.25910949707031 17.107807159423828 -99.7431411743164 
v 164.30555725097656 17.107803344726562 14.794058799743652 
v 120.25910949707031 17.107803344726562 14.794058799743652 
v 296.44488525390625 17.107807159423828 -99.7431411743164 
v 252.3984375 17.107807159423828 -99.7431411743164 
v 296.44488525390625 17.107803344726562 14.794058799743652 
v 252.3984375 17.107803344726562 14.794058799743652 
v 208.3520050048828 17.107807159423828 -99.7431411743164 
v 208.3520050048828 17.107803344726562 14.794058799743652 
vn 0 1 2.2204500197172533e-16 
vn 0 1 2.2204500197172533e-16 
vn 0 1 2.2204500197172533e-16 
vn 0 1 2.2204500197172533e-16 
vn 0 -1.6292099758175027e-7 1 
vn 0 -1.6292099758175027e-7 1 
vn 0 -1.6292099758175027e-7 1 
vn 0 -1.6292099758175027e-7 1 
vn 0 -1.6292099758175027e-7 1 
vn 0 -1.6292099758175027e-7 1 
vn 0 -1.6292099758175027e-7 1 
vn 0 -1.6292099758175027e-7 1 
vn 0 -1.6292099758175027e-7 1 
vn 0 -1.6292099758175027e-7 1 
vn 0 -1.6292099758175027e-7 1 
vn 0 -1.6292099758175027e-7 1 
vn 0 -1.6292099758175027e-7 1 
vn 0 -1.6292099758175027e-7 1 
vn 0 -1.6292099758175027e-7 1 
vn 0 -1.6292099758175027e-7 1 
vn 0 -1.6292099758175027e-7 1 
vn 0 -1.6292099758175027e-7 1 
vn 0 -1.6292099758175027e-7 1 
vn 0 -1.6292099758175027e-7 1 
vn 0 -1.6292099758175027e-7 1 
vn 0 -1.6292099758175027e-7 1 
vn 0 -1.6292099758175027e-7 1 
vn 0 -1.6292099758175027e-7 1 
vn 0 -1.6292099758175027e-7 1 
vn 3.097898456858039e-13 -0.999997615814209 0.0021845311857759953 
vn 3.097898456858039e-13 -0.999997615814209 -0.0021848571486771107 
vn 3.097898456858039e-13 -0.999997615814209 0.0021845311857759953 
vn 3.097898456858039e-13 -0.999997615814209 -0.0021848571486771107 
vn 3.097898456858039e-13 -0.999997615814209 0.0021845311857759953 
vn 3.097898456858039e-13 -0.999997615814209 -0.0021848571486771107 
vn 3.097898456858039e-13 -0.999997615814209 0.0021845311857759953 
vn 3.097898456858039e-13 -0.999997615814209 -0.0021848571486771107 
vn 3.097898456858039e-13 -0.999997615814209 0.0021845311857759953 
vn 3.097898456858039e-13 -0.999997615814209 -0.0021848571486771107 
vn 3.097898456858039e-13 -0.999997615814209 -0.0021848571486771107 
vn 3.097898456858039e-13 -0.999997615814209 -0.0021848571486771107 
vn 3.097898456858039e-13 -0.999997615814209 -0.0021848571486771107 
vn 3.097898456858039e-13 -0.999997615814209 -0.0021848571486771107 
vn 3.097898456858039e-13 -0.999997615814209 -0.0021848571486771107 
vn 3.097898456858039e-13 -0.999997615814209 0.0021845311857759953 
vn 3.097898456858039e-13 -0.999997615814209 0.0021845311857759953 
vn 3.097898456858039e-13 -0.999997615814209 0.0021845311857759953 
vn 3.097898456858039e-13 -0.999997615814209 0.0021845311857759953 
vn 3.097898456858039e-13 -0.999997615814209 0.0021845311857759953 
vn 3.097898456858039e-13 -0.999997615814209 0.0021845311857759953 
vn 3.097898456858039e-13 -0.999997615814209 0.0021845311857759953 
vn 3.097898456858039e-13 -0.999997615814209 0.0021845311857759953 
vn 3.097898456858039e-13 -0.999997615814209 0.0021845311857759953 
vn 3.097898456858039e-13 -0.999997615814209 0.0021845311857759953 
s on 
f 1//1 2//2 3//3 
f 2//2 4//4 3//3 
f 3//3 4//4 4//4 
f 4//4 5//5 4//4 
f 4//4 5//5 5//5 
f 5//5 6//6 5//5 
f 5//5 6//6 7//7 
f 6//6 8//8 7//7 
f 7//7 8//8 9//9 
f 8//8 10//10 9//9 
f 9//9 10//10 11//11 
f 10//10 12//12 11//11 
f 11//11 12//12 13//13 
f 12//12 14//14 13//13 
f 13//13 14//14 14//14 
f 14//14 6//6 14//14 
f 14//14 6//6 6//6 
f 6//6 15//15 6//6 
f 6//6 15//15 8//8 
f 15//15 16//16 8//8 
f 8//8 16//16 10//10 
f 16//16 17//17 10//10 
f 10//10 17//17 12//12 
f 17//17 18//18 12//12 
f 12//12 18//18 14//14 
f 18//18 18//18 14//14 
f 14//14 18//18 19//19 
f 18//18 20//20 19//19 
f 19//19 20//20 21//21 
f 20//20 22//22 21//21 
f 21//21 22//22 23//23 
f 22//22 23//23 23//23 
f 23//23 23//23 15//15 
f 23//23 15//15 15//15 
f 15//15 15//15 16//16 
f 15//15 24//24 16//16 
f 16//16 24//24 25//25 
f 24//24 26//26 25//25 
f 25//25 26//26 25//25 
f 26//26 27//27 25//25 
f 25//25 27//27 28//28 
f 27//27 29//29 28//28 
f 28//28 29//29 20//20 
f 29//29 22//22 20//20 
f 20//20 22//22 22//22 
f 22//22 20//20 22//22 
f 22//22 20//20 20//20 
f 20//20 18//18 20//20 
f 20//20 18//18 28//28 
f 18//18 17//17 28//28 
f 28//28 17//17 25//25 
f 17//17 16//16 25//25 
f 25//25 16//16 16//16 
f 16//16 30//30 16//16 
f 16//16 30//30 30//30 
f 30//30 31//31 30//30 
f 30//30 31//31 32//32 
f 31//31 33//33 32//32 
f 32//32 33//33 34//34 
f 33//33 35//35 34//34 
f 34//34 35//35 36//36 
f 35//35 37//37 36//36 
f 36//36 37//37 38//38 
f 37//37 39//39 38//38 
f 38//38 39//39 39//39 
f 39//39 31//31 39//39 
f 39//39 31//31 31//31 
f 31//31 40//40 31//31 
f 31//31 40//40 33//33 
f 40//40 41//41 33//33 
f 33//33 41//41 35//35 
f 41//41 42//42 35//35 
f 35//35 42//42 37//37 
f 42//42 43//43 37//37 
f 37//37 43//43 39//39 
f 43//43 43//43 39//39 
f 39//39 43//43 44//44 
f 43//43 45//45 44//44 
f 44//44 45//45 46//46 
f 45//45 47//47 46//46 
f 46//46 47//47 48//48 
f 47//47 48//48 48//48 
f 48//48 48//48 40//40 
f 48//48 40//40 40//40 
f 40//40 40//40 41//41 
f 40//40 49//49 41//41 
f 41//41 49//49 50//50 
f 49//49 51//51 50//50 
f 50//50 51//51 50//50 
f 51//51 52//52 50//50 
f 50//50 52//52 53//53 
f 52//52 54//54 53//53 
f 53//53 54//54 45//45 
f 54//54 47//47 45//45 
f 45//45 47//47 47//47 
f 47//47 45//45 47//47 
f 47//47 45//45 45//45 
f 45//45 43//43 45//45 
f 45//45 43//43 53//53 
f 43//43 42//42 53//53 
f 53//53 42//42 50//50 
f 42//42 41//41 50//50 

