mtllib model_50.mtl
o model_50
v 56.471378326416016 1273.9073486328125 -60.8318977355957 
v 56.54710388183594 1273.7557373046875 -60.8318977355957 
v 58.115753173828125 1274.2845458984375 -60.83190155029297 
v 58.115753173828125 1274.1143798828125 -60.83190155029297 
v 59.756526947021484 1273.9110107421875 -60.831905364990234 
v 59.68440246582031 1273.7593994140625 -60.831905364990234 
v 61.07635498046875 1272.8607177734375 -60.8319091796875 
v 60.942928314208984 1272.7572021484375 -60.8319091796875 
v 61.80839157104492 1271.3443603515625 -60.831912994384766 
v 61.64250946044922 1271.307373046875 -60.831912994384766 
v 61.80839157104492 1269.657958984375 -60.831912994384766 
v 61.64250946044922 1269.6949462890625 -60.8319091796875 
v 61.079959869384766 1268.1416015625 -60.8319091796875 
v 60.946533203125 1268.2452392578125 -60.8319091796875 
v 59.7601318359375 1267.09130859375 -60.831905364990234 
v 59.688011169433594 1267.242919921875 -60.831905364990234 
v 58.119361877441406 1266.714111328125 -60.83190155029297 
v 58.119361877441406 1266.8804931640625 -60.83190155029297 
v 56.55071258544922 1267.2392578125 -60.83189392089844 
v 56.47858810424805 1267.087646484375 -60.83189392089844 
v 55.15876007080078 1268.137939453125 -60.83189010620117 
v 55.29218673706055 1268.241455078125 -60.83189010620117 
v 54.42672348022461 1269.654296875 -60.831886291503906 
v 54.59260559082031 1269.6912841796875 -60.831886291503906 
v 54.42672348022461 1271.3406982421875 -60.831886291503906 
v 54.58899688720703 1271.300048828125 -60.831886291503906 
v 55.155155181884766 1272.8570556640625 -60.83189010620117 
v 55.28858184814453 1272.75341796875 -60.83189010620117 
v -934.6591186523438 1240.8983154296875 -60.86229705810547 
v -934.5833740234375 1240.7467041015625 -60.86229705810547 
v -933.0147094726562 1241.2755126953125 -60.862300872802734 
v -933.0147094726562 1241.10546875 -60.862300872802734 
v -931.3739624023438 1240.9019775390625 -60.862308502197266 
v -931.446044921875 1240.7503662109375 -60.862308502197266 
v -930.0541381835938 1239.8516845703125 -60.86231231689453 
v -930.1875610351562 1239.7481689453125 -60.86231231689453 
v -929.3220825195312 1238.33544921875 -60.8623161315918 
v -929.4879760742188 1238.2984619140625 -60.8623161315918 
v -929.3220825195312 1236.64892578125 -60.8623161315918 
v -929.4879760742188 1236.6859130859375 -60.86231231689453 
v -930.050537109375 1235.1326904296875 -60.862308502197266 
v -930.1839599609375 1235.2362060546875 -60.862308502197266 
v -931.370361328125 1234.082275390625 -60.8623046875 
v -931.4424438476562 1234.2340087890625 -60.8623046875 
v -933.0111083984375 1233.705078125 -60.862300872802734 
v -933.0111083984375 1233.87158203125 -60.862300872802734 
v -934.5797729492188 1234.230224609375 -60.86229705810547 
v -934.65185546875 1234.07861328125 -60.8622932434082 
v -935.9716796875 1235.12890625 -60.86228942871094 
v -935.8382568359375 1235.2325439453125 -60.86228942871094 
v -936.7037353515625 1236.645263671875 -60.86228942871094 
v -936.537841796875 1236.6822509765625 -60.86228942871094 
v -936.7037353515625 1238.3316650390625 -60.86228942871094 
v -936.5414428710938 1238.291015625 -60.86228942871094 
v -935.975341796875 1239.8480224609375 -60.86228942871094 
v -935.8419189453125 1239.7445068359375 -60.86228942871094 
vn 0.0000030120197607175214 1.6292099758175027e-7 1 
vn 0.0000030120197607175214 1.6292099758175027e-7 1 
vn 0.0000030120197607175214 1.6292099758175027e-7 1 
vn 0.0000030120197607175214 1.6292099758175027e-7 1 
vn 0.0000030120197607175214 1.6292099758175027e-7 1 
vn 0.0000030120197607175214 1.6292099758175027e-7 1 
vn 0.0000030120197607175214 1.6292099758175027e-7 1 
vn 0.0000030120197607175214 1.6292099758175027e-7 1 
vn 0.0000030120197607175214 1.6292099758175027e-7 1 
vn 0.0000030120197607175214 1.6292099758175027e-7 1 
vn 0.0000030120197607175214 1.6292099758175027e-7 1 
vn 0.0000030120197607175214 1.6292099758175027e-7 1 
vn 0.0000030120197607175214 1.6292099758175027e-7 1 
vn 0.0000030120197607175214 1.6292099758175027e-7 1 
vn 0.0000030120197607175214 1.6292099758175027e-7 1 
vn 0.0000030120197607175214 1.6292099758175027e-7 1 
vn 0.0000030120197607175214 1.6292099758175027e-7 1 
vn 0.0000030120197607175214 1.6292099758175027e-7 1 
vn 0.0000030120197607175214 1.6292099758175027e-7 1 
vn 0.0000030120197607175214 1.6292099758175027e-7 1 
vn 0.0000030120197607175214 1.6292099758175027e-7 1 
vn 0.0000030120197607175214 1.6292099758175027e-7 1 
vn 0.0000030120197607175214 1.6292099758175027e-7 1 
vn 0.0000030120197607175214 1.6292099758175027e-7 1 
vn 0.0000030120197607175214 1.6292099758175027e-7 1 
vn 0.0000030120197607175214 1.6292099758175027e-7 1 
vn 0.0000030120197607175214 1.6292099758175027e-7 1 
vn 0.0000030120197607175214 1.6292099758175027e-7 1 
vn 0.0000030120197607175214 1.6292099758175027e-7 1 
vn 0.0000030120197607175214 1.6292099758175027e-7 1 
vn 0.0000030120197607175214 1.6292099758175027e-7 1 
vn 0.0000030120197607175214 1.6292099758175027e-7 1 
vn 0.0000030120197607175214 1.6292099758175027e-7 1 
vn 0.0000030120197607175214 1.6292099758175027e-7 1 
vn 0.0000030120197607175214 1.6292099758175027e-7 1 
vn 0.0000030120197607175214 1.6292099758175027e-7 1 
vn 0.0000030120197607175214 1.6292099758175027e-7 1 
vn 0.0000030120197607175214 1.6292099758175027e-7 1 
vn 0.0000030120197607175214 1.6292099758175027e-7 1 
vn 0.0000030120197607175214 1.6292099758175027e-7 1 
vn 0.0000030120197607175214 1.6292099758175027e-7 1 
vn 0.0000030120197607175214 1.6292099758175027e-7 1 
vn 0.0000030120197607175214 1.6292099758175027e-7 1 
vn 0.0000030120197607175214 1.6292099758175027e-7 1 
vn 0.0000030120197607175214 1.6292099758175027e-7 1 
vn 0.0000030120197607175214 1.6292099758175027e-7 1 
vn 0.0000030120197607175214 1.6292099758175027e-7 1 
vn 0.0000030120197607175214 1.6292099758175027e-7 1 
vn 0.0000030120197607175214 1.6292099758175027e-7 1 
vn 0.0000030120197607175214 1.6292099758175027e-7 1 
vn 0.0000030120197607175214 1.6292099758175027e-7 1 
vn 0.0000030120197607175214 1.6292099758175027e-7 1 
vn 0.0000030120197607175214 1.6292099758175027e-7 1 
vn 0.0000030120197607175214 1.6292099758175027e-7 1 
vn 0.0000030120197607175214 1.6292099758175027e-7 1 
vn 0.0000030120197607175214 1.6292099758175027e-7 1 
s on 
f 1//1 2//2 3//3 
f 2//2 4//4 3//3 
f 3//3 4//4 5//5 
f 4//4 6//6 5//5 
f 5//5 6//6 7//7 
f 6//6 8//8 7//7 
f 7//7 8//8 9//9 
f 8//8 10//10 9//9 
f 9//9 10//10 11//11 
f 10//10 12//12 11//11 
f 11//11 12//12 13//13 
f 12//12 14//14 13//13 
f 13//13 14//14 15//15 
f 14//14 16//16 15//15 
f 15//15 16//16 17//17 
f 16//16 16//16 17//17 
f 17//17 16//16 18//18 
f 16//16 4//4 18//18 
f 18//18 4//4 18//18 
f 4//4 2//2 18//18 
f 18//18 2//2 18//18 
f 2//2 19//19 18//18 
f 18//18 19//19 20//20 
f 19//19 19//19 20//20 
f 20//20 19//19 21//21 
f 19//19 22//22 21//21 
f 21//21 22//22 23//23 
f 22//22 24//24 23//23 
f 23//23 24//24 25//25 
f 24//24 24//24 25//25 
f 25//25 24//24 26//26 
f 24//24 22//22 26//26 
f 26//26 22//22 22//22 
f 22//22 10//10 22//22 
f 22//22 10//10 10//10 
f 10//10 8//8 10//10 
f 10//10 8//8 12//12 
f 8//8 8//8 12//12 
f 12//12 8//8 14//14 
f 8//8 6//6 14//14 
f 14//14 6//6 16//16 
f 6//6 4//4 16//16 
f 16//16 4//4 4//4 
f 4//4 20//20 4//4 
f 4//4 20//20 20//20 
f 20//20 17//17 20//20 
f 20//20 17//17 18//18 
f 17//17 18//18 18//18 
f 18//18 18//18 25//25 
f 18//18 25//25 25//25 
f 25//25 25//25 27//27 
f 25//25 26//26 27//27 
f 27//27 26//26 28//28 
f 26//26 22//22 28//28 
f 28//28 22//22 28//28 
f 22//22 19//19 28//28 
f 28//28 19//19 28//28 
f 19//19 2//2 28//28 
f 28//28 2//2 28//28 
f 2//2 1//1 28//28 
f 28//28 1//1 27//27 
f 1//1 27//27 27//27 
f 27//27 27//27 29//29 
f 27//27 29//29 29//29 
f 29//29 29//29 29//29 
f 29//29 30//30 29//29 
f 29//29 30//30 31//31 
f 30//30 32//32 31//31 
f 31//31 32//32 33//33 
f 32//32 34//34 33//33 
f 33//33 34//34 35//35 
f 34//34 36//36 35//35 
f 35//35 36//36 37//37 
f 36//36 38//38 37//37 
f 37//37 38//38 39//39 
f 38//38 40//40 39//39 
f 39//39 40//40 41//41 
f 40//40 42//42 41//41 
f 41//41 42//42 43//43 
f 42//42 44//44 43//43 
f 43//43 44//44 45//45 
f 44//44 44//44 45//45 
f 45//45 44//44 46//46 
f 44//44 32//32 46//46 
f 46//46 32//32 46//46 
f 32//32 30//30 46//46 
f 46//46 30//30 46//46 
f 30//30 47//47 46//46 
f 46//46 47//47 48//48 
f 47//47 47//47 48//48 
f 48//48 47//47 49//49 
f 47//47 50//50 49//49 
f 49//49 50//50 51//51 
f 50//50 52//52 51//51 
f 51//51 52//52 53//53 
f 52//52 52//52 53//53 
f 53//53 52//52 54//54 
f 52//52 50//50 54//54 
f 54//54 50//50 50//50 
f 50//50 38//38 50//50 
f 50//50 38//38 38//38 
f 38//38 36//36 38//38 
f 38//38 36//36 40//40 
f 36//36 36//36 40//40 
f 40//40 36//36 42//42 
f 36//36 34//34 42//42 
f 42//42 34//34 44//44 
f 34//34 32//32 44//44 
f 44//44 32//32 32//32 
f 32//32 48//48 32//32 
f 32//32 48//48 48//48 
f 48//48 45//45 48//48 
f 48//48 45//45 46//46 
f 45//45 46//46 46//46 
f 46//46 46//46 53//53 
f 46//46 53//53 53//53 
f 53//53 53//53 55//55 
f 53//53 54//54 55//55 
f 55//55 54//54 56//56 
f 54//54 50//50 56//56 
f 56//56 50//50 56//56 
f 50//50 47//47 56//56 
f 56//56 47//47 56//56 
f 47//47 30//30 56//56 
f 56//56 30//30 56//56 
f 30//30 29//29 56//56 
f 56//56 29//29 55//55 

