mtllib model_40.mtl
o model_40
v -154.81729125976562 10.053086280822754 182.14376831054688 
v -150.14651489257812 9.771581649780273 186.8340606689453 
v -154.8173065185547 16.190532684326172 79.88418579101562 
v -150.1465301513672 16.472061157226562 75.19387817382812 
v 256.2105712890625 9.771581649780273 186.83399963378906 
v 256.2105407714844 16.472061157226562 75.19380950927734 
v 260.8813171386719 10.053086280822754 182.14369201660156 
v 260.88128662109375 16.190555572509766 79.88411712646484 
v -350.7502136230469 10.035353660583496 180.8961639404297 
v -345.80621337890625 9.77155590057373 185.29144287109375 
v -350.7502136230469 16.208240509033203 78.0465087890625 
v -345.80621337890625 16.47203826904297 73.65122985839844 
v -198.72222900390625 9.77155590057373 185.29147338867188 
v -198.7222137451172 16.47203826904297 73.65125274658203 
v -193.77822875976562 10.035353660583496 180.89617919921875 
v -193.77821350097656 16.208240509033203 78.04653930664062 
vn 1.0399971550612008e-8 0.9982299208641052 0.05948075279593468 
vn 1.0399971550612008e-8 0.9982299208641052 0.05948075279593468 
vn 1.0399971550612008e-8 0.9982299208641052 0.05948075279593468 
vn 1.0399971550612008e-8 0.9982299208641052 0.05948075279593468 
vn 1.0399971550612008e-8 0.9982299208641052 0.05948075279593468 
vn 1.0399971550612008e-8 0.9982299208641052 0.05948075279593468 
vn 1.0399971550612008e-8 0.9982299208641052 0.05948075279593468 
vn 1.0399971550612008e-8 0.9982299208641052 0.05948075279593468 
vn -1.0399969774255169e-8 0.9982299208641052 0.05948075279593468 
vn -1.0399969774255169e-8 0.9982299208641052 0.05948075279593468 
vn -1.0399969774255169e-8 0.9982299208641052 0.05948075279593468 
vn -1.0399969774255169e-8 0.9982299208641052 0.05948075279593468 
vn -1.0399969774255169e-8 0.9982299208641052 0.05948075279593468 
vn -1.0399969774255169e-8 0.9982299208641052 0.05948075279593468 
vn -1.0399969774255169e-8 0.9982299208641052 0.05948075279593468 
vn -1.0399969774255169e-8 0.9982299208641052 0.05948075279593468 
s on 
f 1//1 2//2 3//3 
f 2//2 2//2 3//3 
f 3//3 2//2 4//4 
f 2//2 5//5 4//4 
f 4//4 5//5 6//6 
f 5//5 7//7 6//6 
f 6//6 7//7 8//8 
f 7//7 8//8 8//8 
f 8//8 8//8 9//9 
f 8//8 9//9 9//9 
f 9//9 9//9 9//9 
f 9//9 10//10 9//9 
f 9//9 10//10 11//11 
f 10//10 10//10 11//11 
f 11//11 10//10 12//12 
f 10//10 13//13 12//12 
f 12//12 13//13 14//14 
f 13//13 15//15 14//14 
f 14//14 15//15 16//16 

