mtllib model_36.mtl
o model_36
v 50.91762161254883 13.040912628173828 73.7658920288086 
v 56.03998565673828 13.040912628173828 73.7658920288086 
v 50.91762161254883 13.010008811950684 73.7658920288086 
v 56.03998565673828 13.010009765625 73.7658920288086 
v 50.91762161254883 12.748741149902344 73.7658920288086 
v 56.03998565673828 12.748741149902344 73.7658920288086 
v 50.91762161254883 12.717850685119629 73.7658920288086 
v 56.03998565673828 12.717850685119629 73.7658920288086 
v 50.917625427246094 12.67025089263916 78.65985870361328 
v 56.03998565673828 12.67025089263916 78.65985870361328 
v 50.917625427246094 13.088512420654297 78.65985870361328 
v 56.03998565673828 13.088512420654297 78.65985870361328 
v 50.917625427246094 13.088512420654297 78.65985870361328 
v 56.03998565673828 13.088512420654297 78.65985870361328 
v 50.917625427246094 13.088512420654297 78.62894439697266 
v 56.03998565673828 13.088512420654297 78.62893676757812 
v 50.91762161254883 13.088512420654297 73.84445190429688 
v 56.03998565673828 13.088512420654297 73.84445190429688 
v 50.91762161254883 13.088512420654297 73.81353759765625 
v 56.03998565673828 13.088512420654297 73.81353759765625 
v 50.91762161254883 13.086610794067383 73.7963638305664 
v 56.03998565673828 13.086610794067383 73.79635620117188 
v 50.91762161254883 13.080891609191895 73.78306579589844 
v 56.03998565673828 13.080891609191895 73.78306579589844 
v 50.91762161254883 13.071369171142578 73.77350616455078 
v 56.03998565673828 13.071369171142578 73.77350616455078 
v 50.91762161254883 13.058042526245117 73.76783752441406 
v 56.03998565673828 13.058043479919434 73.76782989501953 
v 50.91762161254883 13.040912628173828 73.7658920288086 
v 56.03998565673828 13.040912628173828 73.7658920288086 
v 50.91762161254883 12.717850685119629 73.7658920288086 
v 56.03998565673828 12.717850685119629 73.7658920288086 
v 50.91762161254883 12.70070743560791 73.76783752441406 
v 56.03998565673828 12.70070743560791 73.76782989501953 
v 50.91762161254883 12.68738079071045 73.77350616455078 
v 56.03998565673828 12.68738079071045 73.77350616455078 
v 50.91762161254883 12.677858352661133 73.78306579589844 
v 56.03998565673828 12.677858352661133 73.78306579589844 
v 50.91762161254883 12.672152519226074 73.7963638305664 
v 56.03998565673828 12.672152519226074 73.79635620117188 
v 50.91762161254883 12.67025089263916 73.81353759765625 
v 56.03998565673828 12.67025089263916 73.81353759765625 
v 50.91762161254883 12.67025089263916 73.84445190429688 
v 56.03998565673828 12.67025089263916 73.84445190429688 
v 50.917625427246094 12.67025089263916 78.62894439697266 
v 56.03998565673828 12.67025089263916 78.62893676757812 
v 50.917625427246094 12.67025089263916 78.65985870361328 
v 56.03998565673828 12.67025089263916 78.65985870361328 
v 326.1617126464844 7.232116222381592 165.4317169189453 
v 321.0393371582031 7.232116222381592 165.4317169189453 
v 326.1617126464844 7.232116222381592 165.40081787109375 
v 321.0393371582031 7.232116222381592 165.40081787109375 
v 326.1617126464844 7.23211669921875 165.13954162597656 
v 321.0393371582031 7.232116222381592 165.13955688476562 
v 326.1617126464844 7.23211669921875 165.10865783691406 
v 321.0393371582031 7.23211669921875 165.10865783691406 
v 326.1617126464844 12.126089096069336 165.06105041503906 
v 321.0393371582031 12.126089096069336 165.06106567382812 
v 326.1617126464844 12.126089096069336 165.4793243408203 
v 321.0393371582031 12.126089096069336 165.4793243408203 
v 326.1617126464844 12.126089096069336 165.4793243408203 
v 321.0393371582031 12.126089096069336 165.4793243408203 
v 326.1617126464844 12.095171928405762 165.4793243408203 
v 321.0393371582031 12.095171928405762 165.4793243408203 
v 326.1617126464844 7.310678005218506 165.47930908203125 
v 321.0393371582031 7.310677528381348 165.4793243408203 
v 326.1617126464844 7.279760837554932 165.47930908203125 
v 321.0393371582031 7.279760837554932 165.4793243408203 
v 326.1617126464844 7.262585163116455 165.4774169921875 
v 321.0393371582031 7.262584686279297 165.4774169921875 
v 326.1617126464844 7.249292373657227 165.47169494628906 
v 321.0393371582031 7.249291896820068 165.47169494628906 
v 326.1617126464844 7.2397332191467285 165.46217346191406 
v 321.0393371582031 7.2397332191467285 165.46217346191406 
v 326.1617126464844 7.234057903289795 165.44883728027344 
v 321.0393371582031 7.234057903289795 165.4488525390625 
v 326.1617126464844 7.232116222381592 165.4317169189453 
v 321.0393371582031 7.232116222381592 165.4317169189453 
v 326.1617126464844 7.23211669921875 165.10865783691406 
v 321.0393371582031 7.23211669921875 165.10865783691406 
v 326.1617126464844 7.234058380126953 165.0915069580078 
v 321.0393371582031 7.234058380126953 165.09152221679688 
v 326.1617126464844 7.239733695983887 165.07818603515625 
v 321.0393371582031 7.239733695983887 165.07818603515625 
v 326.1617126464844 7.249292850494385 165.06866455078125 
v 321.0393371582031 7.249292373657227 165.06866455078125 
v 326.1617126464844 7.262585639953613 165.06295776367188 
v 321.0393371582031 7.262585163116455 165.06295776367188 
v 326.1617126464844 7.27976131439209 165.06105041503906 
v 321.0393371582031 7.27976131439209 165.06106567382812 
v 326.1617126464844 7.310678482055664 165.06105041503906 
v 321.0393371582031 7.310678005218506 165.06106567382812 
v 326.1617126464844 12.095171928405762 165.06105041503906 
v 321.0393371582031 12.095171928405762 165.06106567382812 
v 326.1617126464844 12.126089096069336 165.06105041503906 
v 321.0393371582031 12.126089096069336 165.06106567382812 
v -274.68414306640625 13.040895462036133 72.22325134277344 
v -269.5617980957031 13.040895462036133 72.2232437133789 
v -274.68414306640625 13.009991645812988 72.22325134277344 
v -269.5617980957031 13.009991645812988 72.2232437133789 
v -274.68414306640625 12.748723030090332 72.22325134277344 
v -269.5617980957031 12.748723030090332 72.2232437133789 
v -274.68414306640625 12.717832565307617 72.22325134277344 
v -269.5617980957031 12.717832565307617 72.2232437133789 
v -274.68414306640625 12.670232772827148 77.11721801757812 
v -269.5617980957031 12.670232772827148 77.11721801757812 
v -274.68414306640625 13.088494300842285 77.11721801757812 
v -269.5617980957031 13.088495254516602 77.11721801757812 
v -274.68414306640625 13.088494300842285 77.11721801757812 
v -269.5617980957031 13.088495254516602 77.11721801757812 
v -274.68414306640625 13.088494300842285 77.08629608154297 
v -269.5617980957031 13.088495254516602 77.08629608154297 
v -274.68414306640625 13.088494300842285 72.30181121826172 
v -269.5617980957031 13.088495254516602 72.30181121826172 
v -274.68414306640625 13.088494300842285 72.2708969116211 
v -269.5617980957031 13.088495254516602 72.27088928222656 
v -274.68414306640625 13.086592674255371 72.25371551513672 
v -269.5617980957031 13.086592674255371 72.25371551513672 
v -274.68414306640625 13.0808744430542 72.24042510986328 
v -269.5617980957031 13.0808744430542 72.24042510986328 
v -274.68414306640625 13.071352005004883 72.23086547851562 
v -269.5617980957031 13.071352005004883 72.23086547851562 
v -274.68414306640625 13.058025360107422 72.22518920898438 
v -269.5617980957031 13.058025360107422 72.22518920898438 
v -274.68414306640625 13.040895462036133 72.22325134277344 
v -269.5617980957031 13.040895462036133 72.2232437133789 
v -274.68414306640625 12.717832565307617 72.22325134277344 
v -269.5617980957031 12.717832565307617 72.2232437133789 
v -274.68414306640625 12.700689315795898 72.22518920898438 
v -269.5617980957031 12.700689315795898 72.22518920898438 
v -274.68414306640625 12.687363624572754 72.23086547851562 
v -269.5617980957031 12.687363624572754 72.23086547851562 
v -274.68414306640625 12.677840232849121 72.24042510986328 
v -269.5617980957031 12.677841186523438 72.24042510986328 
v -274.68414306640625 12.672134399414062 72.25371551513672 
v -269.5617980957031 12.672135353088379 72.25371551513672 
v -274.68414306640625 12.670232772827148 72.2708969116211 
v -269.5617980957031 12.670232772827148 72.27088928222656 
v -274.68414306640625 12.670232772827148 72.30181121826172 
v -269.5617980957031 12.670232772827148 72.30181121826172 
v -274.68414306640625 12.670232772827148 77.08629608154297 
v -269.5617980957031 12.670232772827148 77.08629608154297 
v -274.68414306640625 12.670232772827148 77.11721801757812 
v -269.5617980957031 12.670232772827148 77.11721801757812 
vn 0.002271099016070366 0.06794881075620651 -1.195618748664856 
vn 0.002271099016070366 0.06794881075620651 -1.195618748664856 
vn -6.74904185871128e-7 -6.3679621575829515e-9 -1.1975501775741577 
vn -6.74904185871128e-7 -6.3679621575829515e-9 -1.1975501775741577 
vn -6.74904185871128e-7 -6.3679621575829515e-9 -1.1975501775741577 
vn -6.74904185871128e-7 -6.3679621575829515e-9 -1.1975501775741577 
vn 0.0022711020428687334 -0.06794881820678711 -1.195618748664856 
vn 0.0022711020428687334 -0.06794881820678711 -1.195618748664856 
vn 6.749039584974525e-7 6.3679621575829515e-9 1.1975501775741577 
vn 6.749039584974525e-7 6.3679621575829515e-9 1.1975501775741577 
vn 6.749039584974525e-7 6.3679621575829515e-9 1.1975501775741577 
vn 6.749039584974525e-7 6.3679621575829515e-9 1.1975501775741577 
vn -2.6264252994678827e-8 1.1975473165512085 0.0026162744034081697 
vn -2.6264252994678827e-8 1.1975473165512085 0.0026162744034081697 
vn -2.6264252994678827e-8 1.1975473165512085 0.0026162744034081697 
vn -2.6264252994678827e-8 1.1975473165512085 0.0026162744034081697 
vn -2.6264252994678827e-8 1.1975473165512085 0.0026162744034081697 
vn -2.6264252994678827e-8 1.1975473165512085 0.0026162744034081697 
vn 0.00226022326387465 1.195762276649475 -0.06537456810474396 
vn 0.00226022326387465 1.195762276649475 -0.06537456810474396 
vn -0.0022610495798289776 1.158638834953308 -0.30278268456459045 
vn -0.0022610495798289776 1.158638834953308 -0.30278268456459045 
vn -4.0203366324931267e-7 0.9907938838005066 -0.6726469397544861 
vn -4.0203366324931267e-7 0.9907938838005066 -0.6726469397544861 
vn -0.0022654898930341005 0.6704769134521484 -0.9922610521316528 
vn -0.0022654898930341005 0.6704769134521484 -0.9922610521316528 
vn -6.596735033781442e-7 0.30531319975852966 -1.157976746559143 
vn -6.596735033781442e-7 0.30531319975852966 -1.157976746559143 
vn 0.002271099016070366 0.06794881075620651 -1.195618748664856 
vn 0.002271099016070366 0.06794881075620651 -1.195618748664856 
vn 0.0022711020428687334 -0.06794881820678711 -1.195618748664856 
vn 0.0022711020428687334 -0.06794881820678711 -1.195618748664856 
vn -6.455296670537791e-7 -0.30531322956085205 -1.157976746559143 
vn -6.455296670537791e-7 -0.30531322956085205 -1.157976746559143 
vn -0.002265458693727851 -0.6704769134521484 -0.9922610521316528 
vn -0.002265458693727851 -0.6704769134521484 -0.9922610521316528 
vn -3.561344783520326e-7 -0.9907938838005066 -0.6726469397544861 
vn -3.561344783520326e-7 -0.9907938838005066 -0.6726469397544861 
vn -0.002260996028780937 -1.158638834953308 -0.30278265476226807 
vn -0.002260996028780937 -1.158638834953308 -0.30278265476226807 
vn 0.0022602786775678396 -1.195762276649475 -0.06537455320358276 
vn 0.0022602786775678396 -1.195762276649475 -0.06537455320358276 
vn 2.921292363566863e-8 -1.1975473165512085 0.0026162872090935707 
vn 2.921292363566863e-8 -1.1975473165512085 0.0026162872090935707 
vn 2.921292363566863e-8 -1.1975473165512085 0.0026162872090935707 
vn 2.921292363566863e-8 -1.1975473165512085 0.0026162872090935707 
vn 2.921292363566863e-8 -1.1975473165512085 0.0026162872090935707 
vn 2.921292363566863e-8 -1.1975473165512085 0.0026162872090935707 
vn -0.0022716375533491373 -1.1956175565719604 0.06794732064008713 
vn -0.0022716375533491373 -1.1956175565719604 0.06794732064008713 
vn 2.7735518770555245e-8 -1.1975488662719727 -0.00000142758619858796 
vn 2.7735518770555245e-8 -1.1975488662719727 -0.00000142758619858796 
vn 2.7735518770555245e-8 -1.1975488662719727 -0.00000142758619858796 
vn 2.7735518770555245e-8 -1.1975488662719727 -0.00000142758619858796 
vn -0.002271855715662241 -1.195617437362671 -0.06795015931129456 
vn -0.002271855715662241 -1.195617437362671 -0.06795015931129456 
vn -2.773527185695457e-8 1.1975488662719727 0.00000142758619858796 
vn -2.773527185695457e-8 1.1975488662719727 0.00000142758619858796 
vn -2.773527185695457e-8 1.1975488662719727 0.00000142758619858796 
vn -2.773527185695457e-8 1.1975488662719727 0.00000142758619858796 
vn 0.0000019224271454731934 0.0026148504111915827 1.1975460052490234 
vn 0.0000019224271454731934 0.0026148504111915827 1.1975460052490234 
vn 0.0000019224271454731934 0.0026148504111915827 1.1975460052490234 
vn 0.0000019224271454731934 0.0026148504111915827 1.1975460052490234 
vn 0.0000019224271454731934 0.0026148504111915827 1.1975460052490234 
vn 0.0000019224271454731934 0.0026148504111915827 1.1975460052490234 
vn -0.002258366672322154 -0.065375916659832 1.19576096534729 
vn -0.002258366672322154 -0.065375916659832 1.19576096534729 
vn 0.0022627192083746195 -0.302783727645874 1.1586371660232544 
vn 0.0022627192083746195 -0.302783727645874 1.1586371660232544 
vn 0.0000016061537735367892 -0.6726473569869995 0.9907919764518738 
vn 0.0000016061537735367892 -0.6726473569869995 0.9907919764518738 
vn 0.0022660144604742527 -0.9922608137130737 0.6704750061035156 
vn 0.0022660144604742527 -0.9922608137130737 0.6704750061035156 
vn 5.169546852812346e-7 -1.1579759120941162 0.30531150102615356 
vn 5.169546852812346e-7 -1.1579759120941162 0.30531150102615356 
vn -0.0022716375533491373 -1.1956175565719604 0.06794732064008713 
vn -0.0022716375533491373 -1.1956175565719604 0.06794732064008713 
vn -0.002271855715662241 -1.195617437362671 -0.06795015931129456 
vn -0.002271855715662241 -1.195617437362671 -0.06795015931129456 
vn -4.633171215573384e-7 -1.157975196838379 -0.3053142726421356 
vn -4.633171215573384e-7 -1.157975196838379 -0.3053142726421356 
vn 0.002263861708343029 -0.9922592043876648 -0.6704773902893066 
vn 0.002263861708343029 -0.9922592043876648 -0.6704773902893066 
vn -0.0000015749965314171277 -0.6726450324058533 -0.9907935857772827 
vn -0.0000015749965314171277 -0.6726450324058533 -0.9907935857772827 
vn 0.002258999040350318 -0.30278095602989197 -1.1586378812789917 
vn 0.002258999040350318 -0.30278095602989197 -1.1586378812789917 
vn -0.0022622058168053627 -0.06537306308746338 -1.1957610845565796 
vn -0.0022622058168053627 -0.06537306308746338 -1.1957610845565796 
vn -0.000001922548108268529 0.00261770561337471 -1.1975460052490234 
vn -0.000001922548108268529 0.00261770561337471 -1.1975460052490234 
vn -0.000001922548108268529 0.00261770561337471 -1.1975460052490234 
vn -0.000001922548108268529 0.00261770561337471 -1.1975460052490234 
vn -0.000001922548108268529 0.00261770561337471 -1.1975460052490234 
vn -0.000001922548108268529 0.00261770561337471 -1.1975460052490234 
vn 0.0022715169470757246 0.06794881075620651 -1.195618748664856 
vn 0.0022715169470757246 0.06794881075620651 -1.195618748664856 
vn -2.5613047682782053e-7 -6.3679621575829515e-9 -1.1975501775741577 
vn -2.5613047682782053e-7 -6.3679621575829515e-9 -1.1975501775741577 
vn -2.5613047682782053e-7 -6.3679621575829515e-9 -1.1975501775741577 
vn -2.5613047682782053e-7 -6.3679621575829515e-9 -1.1975501775741577 
vn 0.0022715202067047358 -0.06794881820678711 -1.195618748664856 
vn 0.0022715202067047358 -0.06794881820678711 -1.195618748664856 
vn 2.5613022103243566e-7 6.3679621575829515e-9 1.1975501775741577 
vn 2.5613022103243566e-7 6.3679621575829515e-9 1.1975501775741577 
vn 2.5613022103243566e-7 6.3679621575829515e-9 1.1975501775741577 
vn 2.5613022103243566e-7 6.3679621575829515e-9 1.1975501775741577 
vn -2.7179138939459335e-8 1.1975473165512085 0.0026162744034081697 
vn -2.7179138939459335e-8 1.1975473165512085 0.0026162744034081697 
vn -2.7179138939459335e-8 1.1975473165512085 0.0026162744034081697 
vn -2.7179138939459335e-8 1.1975473165512085 0.0026162744034081697 
vn -2.7179138939459335e-8 1.1975473165512085 0.0026162744034081697 
vn -2.7179138939459335e-8 1.1975473165512085 0.0026162744034081697 
vn 0.002260246081277728 1.195762276649475 -0.06537456810474396 
vn 0.002260246081277728 1.195762276649475 -0.06537456810474396 
vn -0.002260943641886115 1.158638834953308 -0.30278268456459045 
vn -0.002260943641886115 1.158638834953308 -0.30278268456459045 
vn -1.6681440229149302e-7 0.9907938838005066 -0.6726469397544861 
vn -1.6681440229149302e-7 0.9907938838005066 -0.6726469397544861 
vn -0.0022651427425444126 0.6704769134521484 -0.9922610521316528 
vn -0.0022651427425444126 0.6704769134521484 -0.9922610521316528 
vn -2.547382678130816e-7 0.30531319975852966 -1.157976746559143 
vn -2.547382678130816e-7 0.30531319975852966 -1.157976746559143 
vn 0.0022715169470757246 0.06794881075620651 -1.195618748664856 
vn 0.0022715169470757246 0.06794881075620651 -1.195618748664856 
vn 0.0022715202067047358 -0.06794881820678711 -1.195618748664856 
vn 0.0022715202067047358 -0.06794881820678711 -1.195618748664856 
vn -2.405944314887165e-7 -0.30531322956085205 -1.157976746559143 
vn -2.405944314887165e-7 -0.30531322956085205 -1.157976746559143 
vn -0.0022651117760688066 -0.6704769134521484 -0.9922610521316528 
vn -0.0022651117760688066 -0.6704769134521484 -0.9922610521316528 
vn -1.2091523160506767e-7 -0.9907938838005066 -0.6726469397544861 
vn -1.2091523160506767e-7 -0.9907938838005066 -0.6726469397544861 
vn -0.0022608900908380747 -1.158638834953308 -0.30278265476226807 
vn -0.0022608900908380747 -1.158638834953308 -0.30278265476226807 
vn 0.0022603014949709177 -1.195762276649475 -0.06537455320358276 
vn 0.0022603014949709177 -1.195762276649475 -0.06537455320358276 
vn 2.8298025256390247e-8 -1.1975473165512085 0.0026162872090935707 
vn 2.8298025256390247e-8 -1.1975473165512085 0.0026162872090935707 
vn 2.8298025256390247e-8 -1.1975473165512085 0.0026162872090935707 
vn 2.8298025256390247e-8 -1.1975473165512085 0.0026162872090935707 
vn 2.8298025256390247e-8 -1.1975473165512085 0.0026162872090935707 
vn 2.8298025256390247e-8 -1.1975473165512085 0.0026162872090935707 
s on 
f 1//1 2//2 3//3 
f 2//2 4//4 3//3 
f 3//3 4//4 5//5 
f 4//4 6//6 5//5 
f 5//5 6//6 7//7 
f 6//6 8//8 7//7 
f 7//7 8//8 8//8 
f 8//8 9//9 8//8 
f 8//8 9//9 9//9 
f 9//9 10//10 9//9 
f 9//9 10//10 11//11 
f 10//10 12//12 11//11 
f 11//11 12//12 12//12 
f 12//12 13//13 12//12 
f 12//12 13//13 13//13 
f 13//13 14//14 13//13 
f 13//13 14//14 15//15 
f 14//14 16//16 15//15 
f 15//15 16//16 17//17 
f 16//16 18//18 17//17 
f 17//17 18//18 19//19 
f 18//18 20//20 19//19 
f 19//19 20//20 21//21 
f 20//20 22//22 21//21 
f 21//21 22//22 23//23 
f 22//22 24//24 23//23 
f 23//23 24//24 25//25 
f 24//24 26//26 25//25 
f 25//25 26//26 27//27 
f 26//26 28//28 27//27 
f 27//27 28//28 29//29 
f 28//28 30//30 29//29 
f 29//29 30//30 30//30 
f 30//30 31//31 30//30 
f 30//30 31//31 31//31 
f 31//31 32//32 31//31 
f 31//31 32//32 33//33 
f 32//32 34//34 33//33 
f 33//33 34//34 35//35 
f 34//34 36//36 35//35 
f 35//35 36//36 37//37 
f 36//36 38//38 37//37 
f 37//37 38//38 39//39 
f 38//38 40//40 39//39 
f 39//39 40//40 41//41 
f 40//40 42//42 41//41 
f 41//41 42//42 43//43 
f 42//42 44//44 43//43 
f 43//43 44//44 45//45 
f 44//44 46//46 45//45 
f 45//45 46//46 47//47 
f 46//46 48//48 47//47 
f 47//47 48//48 48//48 
f 48//48 49//49 48//48 
f 48//48 49//49 49//49 
f 49//49 50//50 49//49 
f 49//49 50//50 51//51 
f 50//50 52//52 51//51 
f 51//51 52//52 53//53 
f 52//52 54//54 53//53 
f 53//53 54//54 55//55 
f 54//54 56//56 55//55 
f 55//55 56//56 56//56 
f 56//56 57//57 56//56 
f 56//56 57//57 57//57 
f 57//57 58//58 57//57 
f 57//57 58//58 59//59 
f 58//58 60//60 59//59 
f 59//59 60//60 60//60 
f 60//60 61//61 60//60 
f 60//60 61//61 61//61 
f 61//61 62//62 61//61 
f 61//61 62//62 63//63 
f 62//62 64//64 63//63 
f 63//63 64//64 65//65 
f 64//64 66//66 65//65 
f 65//65 66//66 67//67 
f 66//66 68//68 67//67 
f 67//67 68//68 69//69 
f 68//68 70//70 69//69 
f 69//69 70//70 71//71 
f 70//70 72//72 71//71 
f 71//71 72//72 73//73 
f 72//72 74//74 73//73 
f 73//73 74//74 75//75 
f 74//74 76//76 75//75 
f 75//75 76//76 77//77 
f 76//76 78//78 77//77 
f 77//77 78//78 78//78 
f 78//78 79//79 78//78 
f 78//78 79//79 79//79 
f 79//79 80//80 79//79 
f 79//79 80//80 81//81 
f 80//80 82//82 81//81 
f 81//81 82//82 83//83 
f 82//82 84//84 83//83 
f 83//83 84//84 85//85 
f 84//84 86//86 85//85 
f 85//85 86//86 87//87 
f 86//86 88//88 87//87 
f 87//87 88//88 89//89 
f 88//88 90//90 89//89 
f 89//89 90//90 91//91 
f 90//90 92//92 91//91 
f 91//91 92//92 93//93 
f 92//92 94//94 93//93 
f 93//93 94//94 95//95 
f 94//94 96//96 95//95 
f 95//95 96//96 96//96 
f 96//96 97//97 96//96 
f 96//96 97//97 97//97 
f 97//97 98//98 97//97 
f 97//97 98//98 99//99 
f 98//98 100//100 99//99 
f 99//99 100//100 101//101 
f 100//100 102//102 101//101 
f 101//101 102//102 103//103 
f 102//102 104//104 103//103 
f 103//103 104//104 104//104 
f 104//104 105//105 104//104 
f 104//104 105//105 105//105 
f 105//105 106//106 105//105 
f 105//105 106//106 107//107 
f 106//106 108//108 107//107 
f 107//107 108//108 108//108 
f 108//108 109//109 108//108 
f 108//108 109//109 109//109 
f 109//109 110//110 109//109 
f 109//109 110//110 111//111 
f 110//110 112//112 111//111 
f 111//111 112//112 113//113 
f 112//112 114//114 113//113 
f 113//113 114//114 115//115 
f 114//114 116//116 115//115 
f 115//115 116//116 117//117 
f 116//116 118//118 117//117 
f 117//117 118//118 119//119 
f 118//118 120//120 119//119 
f 119//119 120//120 121//121 
f 120//120 122//122 121//121 
f 121//121 122//122 123//123 
f 122//122 124//124 123//123 
f 123//123 124//124 125//125 
f 124//124 126//126 125//125 
f 125//125 126//126 126//126 
f 126//126 127//127 126//126 
f 126//126 127//127 127//127 
f 127//127 128//128 127//127 
f 127//127 128//128 129//129 
f 128//128 130//130 129//129 
f 129//129 130//130 131//131 
f 130//130 132//132 131//131 
f 131//131 132//132 133//133 
f 132//132 134//134 133//133 
f 133//133 134//134 135//135 
f 134//134 136//136 135//135 
f 135//135 136//136 137//137 
f 136//136 138//138 137//137 
f 137//137 138//138 139//139 
f 138//138 140//140 139//139 
f 139//139 140//140 141//141 
f 140//140 142//142 141//141 
f 141//141 142//142 143//143 
f 142//142 144//144 143//143 

