mtllib model_6.mtl
o model_6
v 171.33847045898438 158.61985778808594 -93.0322494506836 
v 171.44488525390625 157.34841918945312 -93.0322494506836 
v 171.08006286621094 158.286865234375 -93.0322494506836 
v 170.71522521972656 158.105224609375 -93.0322494506836 
v 170.35040283203125 159.4069366455078 -93.0322494506836 
v 169.529541015625 159.77020263671875 -93.0322494506836 
v 170.53280639648438 159.77020263671875 -93.0322494506836 
v 171.27767944335938 159.4069366455078 -93.0322494506836 
v 170.4416046142578 161.19300842285156 -93.0322494506836 
v 169.5143280029297 161.19300842285156 -93.0322494506836 
v 170.30479431152344 157.95387268066406 -93.0322494506836 
vn 5.140038865647512e-7 -5.545979888665897e-7 -3.404093027114868 
vn 5.140038865647512e-7 -5.545979888665897e-7 -3.404093027114868 
vn 5.140038865647512e-7 -5.545979888665897e-7 -3.404093027114868 
vn 5.140038865647512e-7 -5.545979888665897e-7 -3.404093027114868 
vn 5.140038865647512e-7 -5.545979888665897e-7 -3.404093027114868 
vn 5.140038865647512e-7 -5.545979888665897e-7 -3.404093027114868 
vn 5.140038865647512e-7 -5.545979888665897e-7 -3.404093027114868 
vn 5.140038865647512e-7 -5.545979888665897e-7 -3.404093027114868 
vn 5.140038865647512e-7 -5.545979888665897e-7 -3.404093027114868 
vn 5.140038865647512e-7 -5.545979888665897e-7 -3.404093027114868 
vn 5.140038865647512e-7 -5.545979888665897e-7 -3.404093027114868 
s on 
f 1//1 2//2 3//3 
f 2//2 4//4 3//3 
f 3//3 4//4 5//5 
f 4//4 6//6 5//5 
f 5//5 6//6 5//5 
f 6//6 7//7 5//5 
f 5//5 7//7 8//8 
f 7//7 7//7 8//8 
f 8//8 7//7 9//9 
f 7//7 10//10 9//9 
f 9//9 10//10 10//10 
f 10//10 2//2 10//10 
f 10//10 2//2 2//2 
f 2//2 11//11 2//2 
f 2//2 11//11 4//4 

